%TF.GenerationSoftware,KiCad,Pcbnew,10.0.0*%
%TF.CreationDate,2026-04-05T20:01:56+10:00*%
%TF.ProjectId,pcb,7063622e-6b69-4636-9164-5f7063625858,rev?*%
%TF.SameCoordinates,Original*%
%TF.FileFunction,Copper,L3,Inr*%
%TF.FilePolarity,Positive*%
%FSLAX46Y46*%
G04 Gerber Fmt 4.6, Leading zero omitted, Abs format (unit mm)*
G04 Created by KiCad (PCBNEW 10.0.0) date 2026-04-05 20:01:56*
%MOMM*%
%LPD*%
G01*
G04 APERTURE LIST*
G04 Aperture macros list*
%AMRoundRect*
0 Rectangle with rounded corners*
0 $1 Rounding radius*
0 $2 $3 $4 $5 $6 $7 $8 $9 X,Y pos of 4 corners*
0 Add a 4 corners polygon primitive as box body*
4,1,4,$2,$3,$4,$5,$6,$7,$8,$9,$2,$3,0*
0 Add four circle primitives for the rounded corners*
1,1,$1+$1,$2,$3*
1,1,$1+$1,$4,$5*
1,1,$1+$1,$6,$7*
1,1,$1+$1,$8,$9*
0 Add four rect primitives between the rounded corners*
20,1,$1+$1,$2,$3,$4,$5,0*
20,1,$1+$1,$4,$5,$6,$7,0*
20,1,$1+$1,$6,$7,$8,$9,0*
20,1,$1+$1,$8,$9,$2,$3,0*%
G04 Aperture macros list end*
%TA.AperFunction,ComponentPad*%
%ADD10C,6.400000*%
%TD*%
%TA.AperFunction,ComponentPad*%
%ADD11RoundRect,0.250000X0.350000X0.625000X-0.350000X0.625000X-0.350000X-0.625000X0.350000X-0.625000X0*%
%TD*%
%TA.AperFunction,ComponentPad*%
%ADD12O,1.200000X1.750000*%
%TD*%
%TA.AperFunction,ViaPad*%
%ADD13C,0.600000*%
%TD*%
%TA.AperFunction,Conductor*%
%ADD14C,0.200000*%
%TD*%
G04 APERTURE END LIST*
D10*
%TO.N,N/C*%
%TO.C,REF\u002A\u002A*%
X109500000Y-66500000D03*
%TD*%
D11*
%TO.N,Net-(BT1-+)*%
%TO.C,BT1*%
X87000000Y-55950000D03*
D12*
%TO.N,GND*%
X85000000Y-55950000D03*
%TD*%
D13*
%TO.N,GND*%
X85356250Y-61000000D03*
X86306250Y-67275000D03*
X103800000Y-54200000D03*
X81550000Y-61775000D03*
X88000000Y-67500000D03*
X82500000Y-64000000D03*
X92300000Y-54200000D03*
X63183100Y-52200000D03*
X110800000Y-53700000D03*
X86856250Y-59000000D03*
X92300000Y-68200000D03*
X104300000Y-56200000D03*
X66044600Y-64755000D03*
X88050000Y-65500000D03*
X84493750Y-65275000D03*
X81000000Y-55500000D03*
X104090000Y-61600000D03*
X110800000Y-56700000D03*
X112300000Y-55200000D03*
%TO.N,Net-(BT1-+)*%
X80550000Y-64000000D03*
X67949600Y-64755000D03*
%TO.N,Net-(U2-VCC)*%
X81000000Y-66500000D03*
X89950000Y-65500000D03*
X108000000Y-61000000D03*
%TO.N,Net-(U4-PROG)*%
X86306250Y-63275000D03*
X86318750Y-65275000D03*
%TO.N,Net-(U1-P0.28_A2_D2)*%
X66000000Y-68500000D03*
X104090000Y-66000000D03*
%TD*%
%TO.N,GND*%
D14*
X88000000Y-67500000D02*
X88700000Y-68200000D01*
X104090000Y-61600000D02*
X104090000Y-56410000D01*
X63000000Y-54500000D02*
X63000000Y-52500000D01*
X85356250Y-64325000D02*
X85356250Y-61000000D01*
X81550000Y-61775000D02*
X81550000Y-63050000D01*
X66044600Y-55544600D02*
X66000000Y-55500000D01*
X85356250Y-61000000D02*
X86856250Y-59500000D01*
X92300000Y-68200000D02*
X92300000Y-54200000D01*
X86856250Y-59500000D02*
X86856250Y-59000000D01*
X88050000Y-65500000D02*
X88050000Y-67450000D01*
X84493750Y-65462500D02*
X86306250Y-67275000D01*
X81650000Y-55950000D02*
X81550000Y-56050000D01*
X64000000Y-55500000D02*
X63000000Y-54500000D01*
X104300000Y-54200000D02*
X104300000Y-56200000D01*
X81000000Y-55500000D02*
X66000000Y-55500000D01*
X110800000Y-56700000D02*
X112300000Y-55200000D01*
X66000000Y-55500000D02*
X64000000Y-55500000D01*
X104300000Y-56200000D02*
X104800000Y-56700000D01*
X86306250Y-67275000D02*
X88050000Y-65531250D01*
X85356250Y-61000000D02*
X85500000Y-61000000D01*
X66044600Y-64755000D02*
X66044600Y-55544600D01*
X88050000Y-65531250D02*
X88050000Y-65500000D01*
X81550000Y-56050000D02*
X81000000Y-55500000D01*
X92300000Y-54200000D02*
X103800000Y-54200000D01*
X83775000Y-65275000D02*
X84493750Y-65275000D01*
X84493750Y-65275000D02*
X84493750Y-65462500D01*
X88700000Y-68200000D02*
X92300000Y-68200000D01*
X103800000Y-54200000D02*
X104300000Y-54200000D01*
X82500000Y-64000000D02*
X83775000Y-65275000D01*
X104800000Y-56700000D02*
X110800000Y-56700000D01*
X81550000Y-63050000D02*
X82500000Y-64000000D01*
X112300000Y-55200000D02*
X110800000Y-53700000D01*
X81550000Y-61775000D02*
X81550000Y-56050000D01*
X85000000Y-55950000D02*
X81650000Y-55950000D01*
X84406250Y-65275000D02*
X85356250Y-64325000D01*
X104090000Y-56410000D02*
X104300000Y-56200000D01*
%TD*%
M02*
