%TF.GenerationSoftware,KiCad,Pcbnew,10.0.0*%
%TF.CreationDate,2026-04-05T20:07:21+10:00*%
%TF.ProjectId,pcb,7063622e-6b69-4636-9164-5f7063625858,rev?*%
%TF.SameCoordinates,Original*%
%TF.FileFunction,Legend,Top*%
%TF.FilePolarity,Positive*%
%FSLAX46Y46*%
G04 Gerber Fmt 4.6, Leading zero omitted, Abs format (unit mm)*
G04 Created by KiCad (PCBNEW 10.0.0) date 2026-04-05 20:07:21*
%MOMM*%
%LPD*%
G01*
G04 APERTURE LIST*
G04 Aperture macros list*
%AMRoundRect*
0 Rectangle with rounded corners*
0 $1 Rounding radius*
0 $2 $3 $4 $5 $6 $7 $8 $9 X,Y pos of 4 corners*
0 Add a 4 corners polygon primitive as box body*
4,1,4,$2,$3,$4,$5,$6,$7,$8,$9,$2,$3,0*
0 Add four circle primitives for the rounded corners*
1,1,$1+$1,$2,$3*
1,1,$1+$1,$4,$5*
1,1,$1+$1,$6,$7*
1,1,$1+$1,$8,$9*
0 Add four rect primitives between the rounded corners*
20,1,$1+$1,$2,$3,$4,$5,0*
20,1,$1+$1,$4,$5,$6,$7,0*
20,1,$1+$1,$6,$7,$8,$9,0*
20,1,$1+$1,$8,$9,$2,$3,0*%
G04 Aperture macros list end*
%ADD10C,0.150000*%
%ADD11C,0.106680*%
%ADD12C,0.120000*%
%ADD13C,0.127000*%
%ADD14C,0.200000*%
%ADD15C,0.100000*%
%ADD16C,0.504000*%
%ADD17RoundRect,0.100000X0.400000X-0.400000X0.400000X0.400000X-0.400000X0.400000X-0.400000X-0.400000X0*%
%ADD18RoundRect,0.105000X0.995000X-0.420000X0.995000X0.420000X-0.995000X0.420000X-0.995000X-0.420000X0*%
%ADD19RoundRect,0.250000X0.250000X0.475000X-0.250000X0.475000X-0.250000X-0.475000X0.250000X-0.475000X0*%
%ADD20RoundRect,0.243750X-0.243750X-0.456250X0.243750X-0.456250X0.243750X0.456250X-0.243750X0.456250X0*%
%ADD21RoundRect,0.147500X-0.172500X0.147500X-0.172500X-0.147500X0.172500X-0.147500X0.172500X0.147500X0*%
%ADD22C,6.400000*%
%ADD23RoundRect,0.250000X0.262500X0.450000X-0.262500X0.450000X-0.262500X-0.450000X0.262500X-0.450000X0*%
%ADD24RoundRect,0.140000X0.140000X0.170000X-0.140000X0.170000X-0.140000X-0.170000X0.140000X-0.170000X0*%
%ADD25RoundRect,0.250000X-0.250000X-0.475000X0.250000X-0.475000X0.250000X0.475000X-0.250000X0.475000X0*%
%ADD26RoundRect,0.150000X-0.150000X0.512500X-0.150000X-0.512500X0.150000X-0.512500X0.150000X0.512500X0*%
%ADD27RoundRect,0.250000X0.350000X0.625000X-0.350000X0.625000X-0.350000X-0.625000X0.350000X-0.625000X0*%
%ADD28O,1.200000X1.750000*%
%ADD29RoundRect,0.150000X0.150000X-0.512500X0.150000X0.512500X-0.150000X0.512500X-0.150000X-0.512500X0*%
%ADD30RoundRect,0.250000X-0.450000X0.262500X-0.450000X-0.262500X0.450000X-0.262500X0.450000X0.262500X0*%
%ADD31RoundRect,0.102000X0.720000X0.400000X-0.720000X0.400000X-0.720000X-0.400000X0.720000X-0.400000X0*%
%ADD32RoundRect,0.250000X0.475000X-0.250000X0.475000X0.250000X-0.475000X0.250000X-0.475000X-0.250000X0*%
%ADD33RoundRect,0.250000X-0.262500X-0.450000X0.262500X-0.450000X0.262500X0.450000X-0.262500X0.450000X0*%
%ADD34RoundRect,0.525400X0.525400X-0.900400X0.525400X0.900400X-0.525400X0.900400X-0.525400X-0.900400X0*%
%ADD35C,1.700000*%
%ADD36RoundRect,0.275000X-0.975000X-0.275000X0.975000X-0.275000X0.975000X0.275000X-0.975000X0.275000X0*%
%ADD37RoundRect,0.275000X-0.275000X0.975000X-0.275000X-0.975000X0.275000X-0.975000X0.275000X0.975000X0*%
%ADD38RoundRect,0.250000X0.450000X-0.262500X0.450000X0.262500X-0.450000X0.262500X-0.450000X-0.262500X0*%
G04 APERTURE END LIST*
D10*
X106754819Y-55533333D02*
X107469104Y-55533333D01*
X107469104Y-55533333D02*
X107611961Y-55580952D01*
X107611961Y-55580952D02*
X107707200Y-55676190D01*
X107707200Y-55676190D02*
X107754819Y-55819047D01*
X107754819Y-55819047D02*
X107754819Y-55914285D01*
X107754819Y-54533333D02*
X107754819Y-55104761D01*
X107754819Y-54819047D02*
X106754819Y-54819047D01*
X106754819Y-54819047D02*
X106897676Y-54914285D01*
X106897676Y-54914285D02*
X106992914Y-55009523D01*
X106992914Y-55009523D02*
X107040533Y-55104761D01*
X85189583Y-69314580D02*
X85141964Y-69362200D01*
X85141964Y-69362200D02*
X84999107Y-69409819D01*
X84999107Y-69409819D02*
X84903869Y-69409819D01*
X84903869Y-69409819D02*
X84761012Y-69362200D01*
X84761012Y-69362200D02*
X84665774Y-69266961D01*
X84665774Y-69266961D02*
X84618155Y-69171723D01*
X84618155Y-69171723D02*
X84570536Y-68981247D01*
X84570536Y-68981247D02*
X84570536Y-68838390D01*
X84570536Y-68838390D02*
X84618155Y-68647914D01*
X84618155Y-68647914D02*
X84665774Y-68552676D01*
X84665774Y-68552676D02*
X84761012Y-68457438D01*
X84761012Y-68457438D02*
X84903869Y-68409819D01*
X84903869Y-68409819D02*
X84999107Y-68409819D01*
X84999107Y-68409819D02*
X85141964Y-68457438D01*
X85141964Y-68457438D02*
X85189583Y-68505057D01*
X86046726Y-68409819D02*
X85856250Y-68409819D01*
X85856250Y-68409819D02*
X85761012Y-68457438D01*
X85761012Y-68457438D02*
X85713393Y-68505057D01*
X85713393Y-68505057D02*
X85618155Y-68647914D01*
X85618155Y-68647914D02*
X85570536Y-68838390D01*
X85570536Y-68838390D02*
X85570536Y-69219342D01*
X85570536Y-69219342D02*
X85618155Y-69314580D01*
X85618155Y-69314580D02*
X85665774Y-69362200D01*
X85665774Y-69362200D02*
X85761012Y-69409819D01*
X85761012Y-69409819D02*
X85951488Y-69409819D01*
X85951488Y-69409819D02*
X86046726Y-69362200D01*
X86046726Y-69362200D02*
X86094345Y-69314580D01*
X86094345Y-69314580D02*
X86141964Y-69219342D01*
X86141964Y-69219342D02*
X86141964Y-68981247D01*
X86141964Y-68981247D02*
X86094345Y-68886009D01*
X86094345Y-68886009D02*
X86046726Y-68838390D01*
X86046726Y-68838390D02*
X85951488Y-68790771D01*
X85951488Y-68790771D02*
X85761012Y-68790771D01*
X85761012Y-68790771D02*
X85665774Y-68838390D01*
X85665774Y-68838390D02*
X85618155Y-68886009D01*
X85618155Y-68886009D02*
X85570536Y-68981247D01*
X87230655Y-60079819D02*
X87230655Y-59079819D01*
X87230655Y-59079819D02*
X87468750Y-59079819D01*
X87468750Y-59079819D02*
X87611607Y-59127438D01*
X87611607Y-59127438D02*
X87706845Y-59222676D01*
X87706845Y-59222676D02*
X87754464Y-59317914D01*
X87754464Y-59317914D02*
X87802083Y-59508390D01*
X87802083Y-59508390D02*
X87802083Y-59651247D01*
X87802083Y-59651247D02*
X87754464Y-59841723D01*
X87754464Y-59841723D02*
X87706845Y-59936961D01*
X87706845Y-59936961D02*
X87611607Y-60032200D01*
X87611607Y-60032200D02*
X87468750Y-60079819D01*
X87468750Y-60079819D02*
X87230655Y-60079819D01*
X88754464Y-60079819D02*
X88183036Y-60079819D01*
X88468750Y-60079819D02*
X88468750Y-59079819D01*
X88468750Y-59079819D02*
X88373512Y-59222676D01*
X88373512Y-59222676D02*
X88278274Y-59317914D01*
X88278274Y-59317914D02*
X88183036Y-59365533D01*
X109424819Y-53866666D02*
X109424819Y-54342856D01*
X109424819Y-54342856D02*
X108424819Y-54342856D01*
X109424819Y-53009523D02*
X109424819Y-53580951D01*
X109424819Y-53295237D02*
X108424819Y-53295237D01*
X108424819Y-53295237D02*
X108567676Y-53390475D01*
X108567676Y-53390475D02*
X108662914Y-53485713D01*
X108662914Y-53485713D02*
X108710533Y-53580951D01*
X108166666Y-62804819D02*
X107833333Y-62328628D01*
X107595238Y-62804819D02*
X107595238Y-61804819D01*
X107595238Y-61804819D02*
X107976190Y-61804819D01*
X107976190Y-61804819D02*
X108071428Y-61852438D01*
X108071428Y-61852438D02*
X108119047Y-61900057D01*
X108119047Y-61900057D02*
X108166666Y-61995295D01*
X108166666Y-61995295D02*
X108166666Y-62138152D01*
X108166666Y-62138152D02*
X108119047Y-62233390D01*
X108119047Y-62233390D02*
X108071428Y-62281009D01*
X108071428Y-62281009D02*
X107976190Y-62328628D01*
X107976190Y-62328628D02*
X107595238Y-62328628D01*
X108595238Y-62281009D02*
X108928571Y-62281009D01*
X109071428Y-62804819D02*
X108595238Y-62804819D01*
X108595238Y-62804819D02*
X108595238Y-61804819D01*
X108595238Y-61804819D02*
X109071428Y-61804819D01*
X109833333Y-62281009D02*
X109500000Y-62281009D01*
X109500000Y-62804819D02*
X109500000Y-61804819D01*
X109500000Y-61804819D02*
X109976190Y-61804819D01*
X110500000Y-61804819D02*
X110500000Y-62042914D01*
X110261905Y-61947676D02*
X110500000Y-62042914D01*
X110500000Y-62042914D02*
X110738095Y-61947676D01*
X110357143Y-62233390D02*
X110500000Y-62042914D01*
X110500000Y-62042914D02*
X110642857Y-62233390D01*
X111261905Y-61804819D02*
X111261905Y-62042914D01*
X111023810Y-61947676D02*
X111261905Y-62042914D01*
X111261905Y-62042914D02*
X111500000Y-61947676D01*
X111119048Y-62233390D02*
X111261905Y-62042914D01*
X111261905Y-62042914D02*
X111404762Y-62233390D01*
X85239583Y-67379819D02*
X84906250Y-66903628D01*
X84668155Y-67379819D02*
X84668155Y-66379819D01*
X84668155Y-66379819D02*
X85049107Y-66379819D01*
X85049107Y-66379819D02*
X85144345Y-66427438D01*
X85144345Y-66427438D02*
X85191964Y-66475057D01*
X85191964Y-66475057D02*
X85239583Y-66570295D01*
X85239583Y-66570295D02*
X85239583Y-66713152D01*
X85239583Y-66713152D02*
X85191964Y-66808390D01*
X85191964Y-66808390D02*
X85144345Y-66856009D01*
X85144345Y-66856009D02*
X85049107Y-66903628D01*
X85049107Y-66903628D02*
X84668155Y-66903628D01*
X85572917Y-66379819D02*
X86191964Y-66379819D01*
X86191964Y-66379819D02*
X85858631Y-66760771D01*
X85858631Y-66760771D02*
X86001488Y-66760771D01*
X86001488Y-66760771D02*
X86096726Y-66808390D01*
X86096726Y-66808390D02*
X86144345Y-66856009D01*
X86144345Y-66856009D02*
X86191964Y-66951247D01*
X86191964Y-66951247D02*
X86191964Y-67189342D01*
X86191964Y-67189342D02*
X86144345Y-67284580D01*
X86144345Y-67284580D02*
X86096726Y-67332200D01*
X86096726Y-67332200D02*
X86001488Y-67379819D01*
X86001488Y-67379819D02*
X85715774Y-67379819D01*
X85715774Y-67379819D02*
X85620536Y-67332200D01*
X85620536Y-67332200D02*
X85572917Y-67284580D01*
X87827083Y-65879819D02*
X87493750Y-65403628D01*
X87255655Y-65879819D02*
X87255655Y-64879819D01*
X87255655Y-64879819D02*
X87636607Y-64879819D01*
X87636607Y-64879819D02*
X87731845Y-64927438D01*
X87731845Y-64927438D02*
X87779464Y-64975057D01*
X87779464Y-64975057D02*
X87827083Y-65070295D01*
X87827083Y-65070295D02*
X87827083Y-65213152D01*
X87827083Y-65213152D02*
X87779464Y-65308390D01*
X87779464Y-65308390D02*
X87731845Y-65356009D01*
X87731845Y-65356009D02*
X87636607Y-65403628D01*
X87636607Y-65403628D02*
X87255655Y-65403628D01*
X88684226Y-65213152D02*
X88684226Y-65879819D01*
X88446131Y-64832200D02*
X88208036Y-65546485D01*
X88208036Y-65546485D02*
X88827083Y-65546485D01*
X106113333Y-56719580D02*
X106065714Y-56767200D01*
X106065714Y-56767200D02*
X105922857Y-56814819D01*
X105922857Y-56814819D02*
X105827619Y-56814819D01*
X105827619Y-56814819D02*
X105684762Y-56767200D01*
X105684762Y-56767200D02*
X105589524Y-56671961D01*
X105589524Y-56671961D02*
X105541905Y-56576723D01*
X105541905Y-56576723D02*
X105494286Y-56386247D01*
X105494286Y-56386247D02*
X105494286Y-56243390D01*
X105494286Y-56243390D02*
X105541905Y-56052914D01*
X105541905Y-56052914D02*
X105589524Y-55957676D01*
X105589524Y-55957676D02*
X105684762Y-55862438D01*
X105684762Y-55862438D02*
X105827619Y-55814819D01*
X105827619Y-55814819D02*
X105922857Y-55814819D01*
X105922857Y-55814819D02*
X106065714Y-55862438D01*
X106065714Y-55862438D02*
X106113333Y-55910057D01*
X107018095Y-55814819D02*
X106541905Y-55814819D01*
X106541905Y-55814819D02*
X106494286Y-56291009D01*
X106494286Y-56291009D02*
X106541905Y-56243390D01*
X106541905Y-56243390D02*
X106637143Y-56195771D01*
X106637143Y-56195771D02*
X106875238Y-56195771D01*
X106875238Y-56195771D02*
X106970476Y-56243390D01*
X106970476Y-56243390D02*
X107018095Y-56291009D01*
X107018095Y-56291009D02*
X107065714Y-56386247D01*
X107065714Y-56386247D02*
X107065714Y-56624342D01*
X107065714Y-56624342D02*
X107018095Y-56719580D01*
X107018095Y-56719580D02*
X106970476Y-56767200D01*
X106970476Y-56767200D02*
X106875238Y-56814819D01*
X106875238Y-56814819D02*
X106637143Y-56814819D01*
X106637143Y-56814819D02*
X106541905Y-56767200D01*
X106541905Y-56767200D02*
X106494286Y-56719580D01*
X88833333Y-66179580D02*
X88785714Y-66227200D01*
X88785714Y-66227200D02*
X88642857Y-66274819D01*
X88642857Y-66274819D02*
X88547619Y-66274819D01*
X88547619Y-66274819D02*
X88404762Y-66227200D01*
X88404762Y-66227200D02*
X88309524Y-66131961D01*
X88309524Y-66131961D02*
X88261905Y-66036723D01*
X88261905Y-66036723D02*
X88214286Y-65846247D01*
X88214286Y-65846247D02*
X88214286Y-65703390D01*
X88214286Y-65703390D02*
X88261905Y-65512914D01*
X88261905Y-65512914D02*
X88309524Y-65417676D01*
X88309524Y-65417676D02*
X88404762Y-65322438D01*
X88404762Y-65322438D02*
X88547619Y-65274819D01*
X88547619Y-65274819D02*
X88642857Y-65274819D01*
X88642857Y-65274819D02*
X88785714Y-65322438D01*
X88785714Y-65322438D02*
X88833333Y-65370057D01*
X89166667Y-65274819D02*
X89785714Y-65274819D01*
X89785714Y-65274819D02*
X89452381Y-65655771D01*
X89452381Y-65655771D02*
X89595238Y-65655771D01*
X89595238Y-65655771D02*
X89690476Y-65703390D01*
X89690476Y-65703390D02*
X89738095Y-65751009D01*
X89738095Y-65751009D02*
X89785714Y-65846247D01*
X89785714Y-65846247D02*
X89785714Y-66084342D01*
X89785714Y-66084342D02*
X89738095Y-66179580D01*
X89738095Y-66179580D02*
X89690476Y-66227200D01*
X89690476Y-66227200D02*
X89595238Y-66274819D01*
X89595238Y-66274819D02*
X89309524Y-66274819D01*
X89309524Y-66274819D02*
X89214286Y-66227200D01*
X89214286Y-66227200D02*
X89166667Y-66179580D01*
X88833333Y-67539580D02*
X88785714Y-67587200D01*
X88785714Y-67587200D02*
X88642857Y-67634819D01*
X88642857Y-67634819D02*
X88547619Y-67634819D01*
X88547619Y-67634819D02*
X88404762Y-67587200D01*
X88404762Y-67587200D02*
X88309524Y-67491961D01*
X88309524Y-67491961D02*
X88261905Y-67396723D01*
X88261905Y-67396723D02*
X88214286Y-67206247D01*
X88214286Y-67206247D02*
X88214286Y-67063390D01*
X88214286Y-67063390D02*
X88261905Y-66872914D01*
X88261905Y-66872914D02*
X88309524Y-66777676D01*
X88309524Y-66777676D02*
X88404762Y-66682438D01*
X88404762Y-66682438D02*
X88547619Y-66634819D01*
X88547619Y-66634819D02*
X88642857Y-66634819D01*
X88642857Y-66634819D02*
X88785714Y-66682438D01*
X88785714Y-66682438D02*
X88833333Y-66730057D01*
X89690476Y-66968152D02*
X89690476Y-67634819D01*
X89452381Y-66587200D02*
X89214286Y-67301485D01*
X89214286Y-67301485D02*
X89833333Y-67301485D01*
X87211069Y-62899404D02*
X88020592Y-62899404D01*
X88020592Y-62899404D02*
X88115830Y-62851785D01*
X88115830Y-62851785D02*
X88163450Y-62804166D01*
X88163450Y-62804166D02*
X88211069Y-62708928D01*
X88211069Y-62708928D02*
X88211069Y-62518452D01*
X88211069Y-62518452D02*
X88163450Y-62423214D01*
X88163450Y-62423214D02*
X88115830Y-62375595D01*
X88115830Y-62375595D02*
X88020592Y-62327976D01*
X88020592Y-62327976D02*
X87211069Y-62327976D01*
X87544402Y-61423214D02*
X88211069Y-61423214D01*
X87163450Y-61661309D02*
X87877735Y-61899404D01*
X87877735Y-61899404D02*
X87877735Y-61280357D01*
X84120535Y-58706009D02*
X84263392Y-58753628D01*
X84263392Y-58753628D02*
X84311011Y-58801247D01*
X84311011Y-58801247D02*
X84358630Y-58896485D01*
X84358630Y-58896485D02*
X84358630Y-59039342D01*
X84358630Y-59039342D02*
X84311011Y-59134580D01*
X84311011Y-59134580D02*
X84263392Y-59182200D01*
X84263392Y-59182200D02*
X84168154Y-59229819D01*
X84168154Y-59229819D02*
X83787202Y-59229819D01*
X83787202Y-59229819D02*
X83787202Y-58229819D01*
X83787202Y-58229819D02*
X84120535Y-58229819D01*
X84120535Y-58229819D02*
X84215773Y-58277438D01*
X84215773Y-58277438D02*
X84263392Y-58325057D01*
X84263392Y-58325057D02*
X84311011Y-58420295D01*
X84311011Y-58420295D02*
X84311011Y-58515533D01*
X84311011Y-58515533D02*
X84263392Y-58610771D01*
X84263392Y-58610771D02*
X84215773Y-58658390D01*
X84215773Y-58658390D02*
X84120535Y-58706009D01*
X84120535Y-58706009D02*
X83787202Y-58706009D01*
X84644345Y-58229819D02*
X85215773Y-58229819D01*
X84930059Y-59229819D02*
X84930059Y-58229819D01*
X86072916Y-59229819D02*
X85501488Y-59229819D01*
X85787202Y-59229819D02*
X85787202Y-58229819D01*
X85787202Y-58229819D02*
X85691964Y-58372676D01*
X85691964Y-58372676D02*
X85596726Y-58467914D01*
X85596726Y-58467914D02*
X85501488Y-58515533D01*
X85739583Y-61039580D02*
X85691964Y-61087200D01*
X85691964Y-61087200D02*
X85549107Y-61134819D01*
X85549107Y-61134819D02*
X85453869Y-61134819D01*
X85453869Y-61134819D02*
X85311012Y-61087200D01*
X85311012Y-61087200D02*
X85215774Y-60991961D01*
X85215774Y-60991961D02*
X85168155Y-60896723D01*
X85168155Y-60896723D02*
X85120536Y-60706247D01*
X85120536Y-60706247D02*
X85120536Y-60563390D01*
X85120536Y-60563390D02*
X85168155Y-60372914D01*
X85168155Y-60372914D02*
X85215774Y-60277676D01*
X85215774Y-60277676D02*
X85311012Y-60182438D01*
X85311012Y-60182438D02*
X85453869Y-60134819D01*
X85453869Y-60134819D02*
X85549107Y-60134819D01*
X85549107Y-60134819D02*
X85691964Y-60182438D01*
X85691964Y-60182438D02*
X85739583Y-60230057D01*
X86072917Y-60134819D02*
X86739583Y-60134819D01*
X86739583Y-60134819D02*
X86311012Y-61134819D01*
X78604819Y-61399404D02*
X79414342Y-61399404D01*
X79414342Y-61399404D02*
X79509580Y-61351785D01*
X79509580Y-61351785D02*
X79557200Y-61304166D01*
X79557200Y-61304166D02*
X79604819Y-61208928D01*
X79604819Y-61208928D02*
X79604819Y-61018452D01*
X79604819Y-61018452D02*
X79557200Y-60923214D01*
X79557200Y-60923214D02*
X79509580Y-60875595D01*
X79509580Y-60875595D02*
X79414342Y-60827976D01*
X79414342Y-60827976D02*
X78604819Y-60827976D01*
X78604819Y-60447023D02*
X78604819Y-59827976D01*
X78604819Y-59827976D02*
X78985771Y-60161309D01*
X78985771Y-60161309D02*
X78985771Y-60018452D01*
X78985771Y-60018452D02*
X79033390Y-59923214D01*
X79033390Y-59923214D02*
X79081009Y-59875595D01*
X79081009Y-59875595D02*
X79176247Y-59827976D01*
X79176247Y-59827976D02*
X79414342Y-59827976D01*
X79414342Y-59827976D02*
X79509580Y-59875595D01*
X79509580Y-59875595D02*
X79557200Y-59923214D01*
X79557200Y-59923214D02*
X79604819Y-60018452D01*
X79604819Y-60018452D02*
X79604819Y-60304166D01*
X79604819Y-60304166D02*
X79557200Y-60399404D01*
X79557200Y-60399404D02*
X79509580Y-60447023D01*
X81333333Y-62359580D02*
X81285714Y-62407200D01*
X81285714Y-62407200D02*
X81142857Y-62454819D01*
X81142857Y-62454819D02*
X81047619Y-62454819D01*
X81047619Y-62454819D02*
X80904762Y-62407200D01*
X80904762Y-62407200D02*
X80809524Y-62311961D01*
X80809524Y-62311961D02*
X80761905Y-62216723D01*
X80761905Y-62216723D02*
X80714286Y-62026247D01*
X80714286Y-62026247D02*
X80714286Y-61883390D01*
X80714286Y-61883390D02*
X80761905Y-61692914D01*
X80761905Y-61692914D02*
X80809524Y-61597676D01*
X80809524Y-61597676D02*
X80904762Y-61502438D01*
X80904762Y-61502438D02*
X81047619Y-61454819D01*
X81047619Y-61454819D02*
X81142857Y-61454819D01*
X81142857Y-61454819D02*
X81285714Y-61502438D01*
X81285714Y-61502438D02*
X81333333Y-61550057D01*
X82285714Y-62454819D02*
X81714286Y-62454819D01*
X82000000Y-62454819D02*
X82000000Y-61454819D01*
X82000000Y-61454819D02*
X81904762Y-61597676D01*
X81904762Y-61597676D02*
X81809524Y-61692914D01*
X81809524Y-61692914D02*
X81714286Y-61740533D01*
X83104819Y-53079166D02*
X82628628Y-53412499D01*
X83104819Y-53650594D02*
X82104819Y-53650594D01*
X82104819Y-53650594D02*
X82104819Y-53269642D01*
X82104819Y-53269642D02*
X82152438Y-53174404D01*
X82152438Y-53174404D02*
X82200057Y-53126785D01*
X82200057Y-53126785D02*
X82295295Y-53079166D01*
X82295295Y-53079166D02*
X82438152Y-53079166D01*
X82438152Y-53079166D02*
X82533390Y-53126785D01*
X82533390Y-53126785D02*
X82581009Y-53174404D01*
X82581009Y-53174404D02*
X82628628Y-53269642D01*
X82628628Y-53269642D02*
X82628628Y-53650594D01*
X82200057Y-52698213D02*
X82152438Y-52650594D01*
X82152438Y-52650594D02*
X82104819Y-52555356D01*
X82104819Y-52555356D02*
X82104819Y-52317261D01*
X82104819Y-52317261D02*
X82152438Y-52222023D01*
X82152438Y-52222023D02*
X82200057Y-52174404D01*
X82200057Y-52174404D02*
X82295295Y-52126785D01*
X82295295Y-52126785D02*
X82390533Y-52126785D01*
X82390533Y-52126785D02*
X82533390Y-52174404D01*
X82533390Y-52174404D02*
X83104819Y-52745832D01*
X83104819Y-52745832D02*
X83104819Y-52126785D01*
X100258095Y-70289819D02*
X100258095Y-71099342D01*
X100258095Y-71099342D02*
X100305714Y-71194580D01*
X100305714Y-71194580D02*
X100353333Y-71242200D01*
X100353333Y-71242200D02*
X100448571Y-71289819D01*
X100448571Y-71289819D02*
X100639047Y-71289819D01*
X100639047Y-71289819D02*
X100734285Y-71242200D01*
X100734285Y-71242200D02*
X100781904Y-71194580D01*
X100781904Y-71194580D02*
X100829523Y-71099342D01*
X100829523Y-71099342D02*
X100829523Y-70289819D01*
X101258095Y-70385057D02*
X101305714Y-70337438D01*
X101305714Y-70337438D02*
X101400952Y-70289819D01*
X101400952Y-70289819D02*
X101639047Y-70289819D01*
X101639047Y-70289819D02*
X101734285Y-70337438D01*
X101734285Y-70337438D02*
X101781904Y-70385057D01*
X101781904Y-70385057D02*
X101829523Y-70480295D01*
X101829523Y-70480295D02*
X101829523Y-70575533D01*
X101829523Y-70575533D02*
X101781904Y-70718390D01*
X101781904Y-70718390D02*
X101210476Y-71289819D01*
X101210476Y-71289819D02*
X101829523Y-71289819D01*
X79679580Y-56616666D02*
X79727200Y-56664285D01*
X79727200Y-56664285D02*
X79774819Y-56807142D01*
X79774819Y-56807142D02*
X79774819Y-56902380D01*
X79774819Y-56902380D02*
X79727200Y-57045237D01*
X79727200Y-57045237D02*
X79631961Y-57140475D01*
X79631961Y-57140475D02*
X79536723Y-57188094D01*
X79536723Y-57188094D02*
X79346247Y-57235713D01*
X79346247Y-57235713D02*
X79203390Y-57235713D01*
X79203390Y-57235713D02*
X79012914Y-57188094D01*
X79012914Y-57188094D02*
X78917676Y-57140475D01*
X78917676Y-57140475D02*
X78822438Y-57045237D01*
X78822438Y-57045237D02*
X78774819Y-56902380D01*
X78774819Y-56902380D02*
X78774819Y-56807142D01*
X78774819Y-56807142D02*
X78822438Y-56664285D01*
X78822438Y-56664285D02*
X78870057Y-56616666D01*
X78870057Y-56235713D02*
X78822438Y-56188094D01*
X78822438Y-56188094D02*
X78774819Y-56092856D01*
X78774819Y-56092856D02*
X78774819Y-55854761D01*
X78774819Y-55854761D02*
X78822438Y-55759523D01*
X78822438Y-55759523D02*
X78870057Y-55711904D01*
X78870057Y-55711904D02*
X78965295Y-55664285D01*
X78965295Y-55664285D02*
X79060533Y-55664285D01*
X79060533Y-55664285D02*
X79203390Y-55711904D01*
X79203390Y-55711904D02*
X79774819Y-56283332D01*
X79774819Y-56283332D02*
X79774819Y-55664285D01*
X106833333Y-59804819D02*
X106500000Y-59328628D01*
X106261905Y-59804819D02*
X106261905Y-58804819D01*
X106261905Y-58804819D02*
X106642857Y-58804819D01*
X106642857Y-58804819D02*
X106738095Y-58852438D01*
X106738095Y-58852438D02*
X106785714Y-58900057D01*
X106785714Y-58900057D02*
X106833333Y-58995295D01*
X106833333Y-58995295D02*
X106833333Y-59138152D01*
X106833333Y-59138152D02*
X106785714Y-59233390D01*
X106785714Y-59233390D02*
X106738095Y-59281009D01*
X106738095Y-59281009D02*
X106642857Y-59328628D01*
X106642857Y-59328628D02*
X106261905Y-59328628D01*
X107738095Y-58804819D02*
X107261905Y-58804819D01*
X107261905Y-58804819D02*
X107214286Y-59281009D01*
X107214286Y-59281009D02*
X107261905Y-59233390D01*
X107261905Y-59233390D02*
X107357143Y-59185771D01*
X107357143Y-59185771D02*
X107595238Y-59185771D01*
X107595238Y-59185771D02*
X107690476Y-59233390D01*
X107690476Y-59233390D02*
X107738095Y-59281009D01*
X107738095Y-59281009D02*
X107785714Y-59376247D01*
X107785714Y-59376247D02*
X107785714Y-59614342D01*
X107785714Y-59614342D02*
X107738095Y-59709580D01*
X107738095Y-59709580D02*
X107690476Y-59757200D01*
X107690476Y-59757200D02*
X107595238Y-59804819D01*
X107595238Y-59804819D02*
X107357143Y-59804819D01*
X107357143Y-59804819D02*
X107261905Y-59757200D01*
X107261905Y-59757200D02*
X107214286Y-59709580D01*
D11*
X56543491Y-61831549D02*
X57176798Y-61831549D01*
X57176798Y-61831549D02*
X57251304Y-61794296D01*
X57251304Y-61794296D02*
X57288558Y-61757042D01*
X57288558Y-61757042D02*
X57325811Y-61682536D01*
X57325811Y-61682536D02*
X57325811Y-61533522D01*
X57325811Y-61533522D02*
X57288558Y-61459016D01*
X57288558Y-61459016D02*
X57251304Y-61421762D01*
X57251304Y-61421762D02*
X57176798Y-61384509D01*
X57176798Y-61384509D02*
X56543491Y-61384509D01*
X57325811Y-60602189D02*
X57325811Y-61049229D01*
X57325811Y-60825709D02*
X56543491Y-60825709D01*
X56543491Y-60825709D02*
X56655251Y-60900216D01*
X56655251Y-60900216D02*
X56729758Y-60974723D01*
X56729758Y-60974723D02*
X56767011Y-61049229D01*
D10*
X79804819Y-67579166D02*
X79328628Y-67912499D01*
X79804819Y-68150594D02*
X78804819Y-68150594D01*
X78804819Y-68150594D02*
X78804819Y-67769642D01*
X78804819Y-67769642D02*
X78852438Y-67674404D01*
X78852438Y-67674404D02*
X78900057Y-67626785D01*
X78900057Y-67626785D02*
X78995295Y-67579166D01*
X78995295Y-67579166D02*
X79138152Y-67579166D01*
X79138152Y-67579166D02*
X79233390Y-67626785D01*
X79233390Y-67626785D02*
X79281009Y-67674404D01*
X79281009Y-67674404D02*
X79328628Y-67769642D01*
X79328628Y-67769642D02*
X79328628Y-68150594D01*
X79804819Y-66626785D02*
X79804819Y-67198213D01*
X79804819Y-66912499D02*
X78804819Y-66912499D01*
X78804819Y-66912499D02*
X78947676Y-67007737D01*
X78947676Y-67007737D02*
X79042914Y-67102975D01*
X79042914Y-67102975D02*
X79090533Y-67198213D01*
%TO.C,J1*%
D12*
X109300000Y-53700000D02*
X109500000Y-53700000D01*
X109300000Y-54500000D02*
X109300000Y-53700000D01*
X109300000Y-56700000D02*
X109300000Y-55900000D01*
X109500000Y-56700000D02*
X109300000Y-56700000D01*
X112100000Y-53700000D02*
X112300000Y-53700000D01*
X112300000Y-53700000D02*
X112300000Y-54500000D01*
X112300000Y-54500000D02*
X112800000Y-54500000D01*
X112300000Y-55900000D02*
X112300000Y-56500000D01*
X112300000Y-55900000D02*
X112800000Y-55900000D01*
X112300000Y-56500000D02*
X112100000Y-56700000D01*
%TO.C,C6*%
X85617502Y-66540000D02*
X85094998Y-66540000D01*
X85617502Y-68010000D02*
X85094998Y-68010000D01*
%TO.C,D1*%
X87377500Y-60040000D02*
X87377500Y-61960000D01*
X87377500Y-61960000D02*
X90062500Y-61960000D01*
X90062500Y-60040000D02*
X87377500Y-60040000D01*
%TO.C,R3*%
X85633314Y-64540000D02*
X85179186Y-64540000D01*
X85633314Y-66010000D02*
X85179186Y-66010000D01*
%TO.C,R4*%
X89314564Y-62765000D02*
X88860436Y-62765000D01*
X89314564Y-64235000D02*
X88860436Y-64235000D01*
%TO.C,C5*%
X106387836Y-54840000D02*
X106172164Y-54840000D01*
X106387836Y-55560000D02*
X106172164Y-55560000D01*
%TO.C,C3*%
X88738748Y-66765000D02*
X89261252Y-66765000D01*
X88738748Y-68235000D02*
X89261252Y-68235000D01*
%TO.C,C4*%
X89261252Y-64765000D02*
X88738748Y-64765000D01*
X89261252Y-66235000D02*
X88738748Y-66235000D01*
%TO.C,U4*%
X83796250Y-61227500D02*
X83846250Y-61227500D01*
X83796250Y-63047500D02*
X83796250Y-61227500D01*
X83846250Y-63047500D02*
X83796250Y-63047500D01*
X85746250Y-63047500D02*
X84966250Y-63047500D01*
X86866250Y-61227500D02*
X86916250Y-61227500D01*
X86916250Y-61227500D02*
X86916250Y-63047500D01*
X86916250Y-63047500D02*
X86866250Y-63047500D01*
X87196250Y-60927500D02*
X86866250Y-60687500D01*
X87196250Y-60447500D01*
X87196250Y-60927500D01*
G36*
X87196250Y-60927500D02*
G01*
X86866250Y-60687500D01*
X87196250Y-60447500D01*
X87196250Y-60927500D01*
G37*
%TO.C,BT1*%
X82940000Y-49590000D02*
X82940000Y-57410000D01*
X82940000Y-55810000D02*
X83860000Y-55810000D01*
X82940000Y-57410000D02*
X83860000Y-57410000D01*
X83860000Y-55810000D02*
X84140000Y-55810000D01*
X83860000Y-57410000D02*
X83860000Y-55810000D01*
X85500000Y-53950000D02*
X85500000Y-49590000D01*
X86500000Y-49590000D02*
X86500000Y-53950000D01*
X86500000Y-53950000D02*
X85500000Y-53950000D01*
X87300000Y-51850000D02*
X87300000Y-49590000D01*
X87800000Y-51850000D02*
X87800000Y-49590000D01*
X87860000Y-55810000D02*
X87860000Y-57025000D01*
X87860000Y-55810000D02*
X88140000Y-55810000D01*
X88140000Y-55810000D02*
X88140000Y-57410000D01*
X88140000Y-57410000D02*
X89060000Y-57410000D01*
X89060000Y-49590000D02*
X82940000Y-49590000D01*
X89060000Y-55810000D02*
X88140000Y-55810000D01*
X89060000Y-57410000D02*
X89060000Y-49590000D01*
X83700000Y-51850000D02*
X84700000Y-51850000D01*
X84700000Y-53450000D01*
X83700000Y-53450000D01*
X83700000Y-51850000D01*
X87300000Y-51850000D02*
X88300000Y-51850000D01*
X88300000Y-53450000D01*
X87300000Y-53450000D01*
X87300000Y-51850000D01*
%TO.C,C7*%
X86167502Y-58265000D02*
X85644998Y-58265000D01*
X86167502Y-59735000D02*
X85644998Y-59735000D01*
%TO.C,U3*%
X79990000Y-59727500D02*
X80040000Y-59727500D01*
X79990000Y-61547500D02*
X79990000Y-59727500D01*
X80040000Y-61547500D02*
X79990000Y-61547500D01*
X81160000Y-59727500D02*
X81940000Y-59727500D01*
X83060000Y-59727500D02*
X83110000Y-59727500D01*
X83110000Y-59727500D02*
X83110000Y-61547500D01*
X83110000Y-61547500D02*
X83060000Y-61547500D01*
X80040000Y-62087500D02*
X79710000Y-62327500D01*
X79710000Y-61847500D01*
X80040000Y-62087500D01*
G36*
X80040000Y-62087500D02*
G01*
X79710000Y-62327500D01*
X79710000Y-61847500D01*
X80040000Y-62087500D01*
G37*
%TO.C,C1*%
X81238748Y-63265000D02*
X81761252Y-63265000D01*
X81238748Y-64735000D02*
X81761252Y-64735000D01*
%TO.C,R2*%
X80265000Y-52685436D02*
X80265000Y-53139564D01*
X81735000Y-52685436D02*
X81735000Y-53139564D01*
%TO.C,U2*%
D13*
X92095000Y-53200000D02*
X92095000Y-53485000D01*
X92095000Y-53200000D02*
X104295000Y-53200000D01*
X92095000Y-60885000D02*
X92095000Y-59315000D01*
X92095000Y-69200000D02*
X92095000Y-68915000D01*
X104295000Y-53200000D02*
X104295000Y-53485000D01*
X104295000Y-59315000D02*
X104295000Y-60885000D01*
X104295000Y-68915000D02*
X104295000Y-69200000D01*
X104295000Y-69200000D02*
X92095000Y-69200000D01*
D14*
X105545000Y-68200000D02*
G75*
G02*
X105345000Y-68200000I-100000J0D01*
G01*
X105345000Y-68200000D02*
G75*
G02*
X105545000Y-68200000I100000J0D01*
G01*
%TO.C,C2*%
D12*
X80265000Y-56711252D02*
X80265000Y-56188748D01*
X81735000Y-56711252D02*
X81735000Y-56188748D01*
%TO.C,R5*%
X106772936Y-60265000D02*
X107227064Y-60265000D01*
X106772936Y-61735000D02*
X107227064Y-61735000D01*
%TO.C,U1*%
D13*
X56216100Y-64301272D02*
X56216100Y-56306000D01*
X56716100Y-55806000D02*
X57726100Y-55806000D01*
D15*
X57726100Y-53325000D02*
X57726100Y-67295000D01*
D13*
X57726100Y-64805000D02*
X56715828Y-64801272D01*
D15*
X76776100Y-51420000D02*
X59631100Y-51420000D01*
X76776100Y-69200000D02*
X59631100Y-69200000D01*
X78681100Y-67295000D02*
X78681100Y-53325000D01*
D13*
X56216100Y-56306000D02*
G75*
G02*
X56716100Y-55806000I500100J-100D01*
G01*
X56715828Y-64801272D02*
G75*
G02*
X56216098Y-64301272I292J500022D01*
G01*
D15*
X57726100Y-53325000D02*
G75*
G02*
X59631100Y-51420000I1905050J-50D01*
G01*
X59627100Y-69200000D02*
G75*
G02*
X57722100Y-67295000I1J1905001D01*
G01*
X76776100Y-51420000D02*
G75*
G02*
X78681100Y-53325000I0J-1905000D01*
G01*
X78681100Y-67295000D02*
G75*
G02*
X76776100Y-69200000I-1905000J0D01*
G01*
D16*
X58394100Y-69410000D02*
G75*
G02*
X57890100Y-69410000I-252000J0D01*
G01*
X57890100Y-69410000D02*
G75*
G02*
X58394100Y-69410000I252000J0D01*
G01*
X59111100Y-68136000D02*
G75*
G02*
X58607100Y-68136000I-252000J0D01*
G01*
X58607100Y-68136000D02*
G75*
G02*
X59111100Y-68136000I252000J0D01*
G01*
%TO.C,R1*%
D12*
X80265000Y-67639564D02*
X80265000Y-67185436D01*
X81735000Y-67639564D02*
X81735000Y-67185436D01*
%TD*%
%LPC*%
D17*
%TO.C,J1*%
X109300000Y-55200000D03*
D18*
X110800000Y-53725000D03*
D17*
X112300000Y-55200000D03*
D18*
X110800000Y-56675000D03*
%TD*%
D19*
%TO.C,C6*%
X86306250Y-67275000D03*
X84406250Y-67275000D03*
%TD*%
D20*
%TO.C,D1*%
X88125000Y-61000000D03*
X90000000Y-61000000D03*
%TD*%
D21*
%TO.C,L1*%
X107800000Y-53215000D03*
X107800000Y-54185000D03*
%TD*%
D22*
%TO.C,REF\u002A\u002A*%
X109500000Y-66500000D03*
%TD*%
D23*
%TO.C,R3*%
X86318750Y-65275000D03*
X84493750Y-65275000D03*
%TD*%
%TO.C,R4*%
X90000000Y-63500000D03*
X88175000Y-63500000D03*
%TD*%
D24*
%TO.C,C5*%
X106760000Y-55200000D03*
X105800000Y-55200000D03*
%TD*%
D25*
%TO.C,C3*%
X88050000Y-67500000D03*
X89950000Y-67500000D03*
%TD*%
D19*
%TO.C,C4*%
X89950000Y-65500000D03*
X88050000Y-65500000D03*
%TD*%
D26*
%TO.C,U4*%
X86306250Y-61000000D03*
X85356250Y-61000000D03*
X84406250Y-61000000D03*
X84406250Y-63275000D03*
X86306250Y-63275000D03*
%TD*%
D27*
%TO.C,BT1*%
X87000000Y-55950000D03*
D28*
X85000000Y-55950000D03*
%TD*%
D19*
%TO.C,C7*%
X86856250Y-59000000D03*
X84956250Y-59000000D03*
%TD*%
D29*
%TO.C,U3*%
X80600000Y-61775000D03*
X81550000Y-61775000D03*
X82500000Y-61775000D03*
X82500000Y-59500000D03*
X80600000Y-59500000D03*
%TD*%
D25*
%TO.C,C1*%
X80550000Y-64000000D03*
X82450000Y-64000000D03*
%TD*%
D30*
%TO.C,R2*%
X81000000Y-52000000D03*
X81000000Y-53825000D03*
%TD*%
D31*
%TO.C,U2*%
X104090000Y-68200000D03*
X104090000Y-67100000D03*
X104090000Y-66000000D03*
X104090000Y-64900000D03*
X104090000Y-63800000D03*
X104090000Y-62700000D03*
X104090000Y-61600000D03*
X104090000Y-58600000D03*
X104090000Y-57500000D03*
X104090000Y-56400000D03*
X104090000Y-55300000D03*
X104090000Y-54200000D03*
X92300000Y-54200000D03*
X92300000Y-55300000D03*
X92300000Y-56400000D03*
X92300000Y-57500000D03*
X92300000Y-58600000D03*
X92300000Y-61600000D03*
X92300000Y-62700000D03*
X92300000Y-63800000D03*
X92300000Y-64900000D03*
X92300000Y-66000000D03*
X92300000Y-67100000D03*
X92300000Y-68200000D03*
%TD*%
D32*
%TO.C,C2*%
X81000000Y-57400000D03*
X81000000Y-55500000D03*
%TD*%
D33*
%TO.C,R5*%
X106087500Y-61000000D03*
X107912500Y-61000000D03*
%TD*%
D34*
%TO.C,U1*%
X60643100Y-68365000D03*
X63183100Y-68365000D03*
X65723100Y-68365000D03*
X68263100Y-68365000D03*
X70803100Y-68365000D03*
X73343100Y-68365000D03*
X75883100Y-68365000D03*
X75883100Y-52200000D03*
X73343100Y-52200000D03*
X70803100Y-52200000D03*
X68263100Y-52200000D03*
X65723100Y-52200000D03*
X63183100Y-52200000D03*
X60643100Y-52200000D03*
D35*
X59694600Y-61580000D03*
X59694600Y-59040000D03*
X62234600Y-61580000D03*
X62234600Y-59040000D03*
D36*
X77500000Y-56500000D03*
X77500000Y-54595000D03*
D37*
X67949600Y-64755000D03*
X66044600Y-64755000D03*
%TD*%
D38*
%TO.C,R1*%
X81000000Y-68325000D03*
X81000000Y-66500000D03*
%TD*%
%LPD*%
M02*
