%TF.GenerationSoftware,KiCad,Pcbnew,10.0.0*%
%TF.CreationDate,2026-04-05T20:07:21+10:00*%
%TF.ProjectId,pcb,7063622e-6b69-4636-9164-5f7063625858,rev?*%
%TF.SameCoordinates,Original*%
%TF.FileFunction,Legend,Bot*%
%TF.FilePolarity,Positive*%
%FSLAX46Y46*%
G04 Gerber Fmt 4.6, Leading zero omitted, Abs format (unit mm)*
G04 Created by KiCad (PCBNEW 10.0.0) date 2026-04-05 20:07:21*
%MOMM*%
%LPD*%
G01*
G04 APERTURE LIST*
G04 Aperture macros list*
%AMRoundRect*
0 Rectangle with rounded corners*
0 $1 Rounding radius*
0 $2 $3 $4 $5 $6 $7 $8 $9 X,Y pos of 4 corners*
0 Add a 4 corners polygon primitive as box body*
4,1,4,$2,$3,$4,$5,$6,$7,$8,$9,$2,$3,0*
0 Add four circle primitives for the rounded corners*
1,1,$1+$1,$2,$3*
1,1,$1+$1,$4,$5*
1,1,$1+$1,$6,$7*
1,1,$1+$1,$8,$9*
0 Add four rect primitives between the rounded corners*
20,1,$1+$1,$2,$3,$4,$5,0*
20,1,$1+$1,$4,$5,$6,$7,0*
20,1,$1+$1,$6,$7,$8,$9,0*
20,1,$1+$1,$8,$9,$2,$3,0*%
G04 Aperture macros list end*
%ADD10C,0.100000*%
%ADD11C,2.000000*%
%ADD12C,6.400000*%
%ADD13RoundRect,0.250000X0.350000X0.625000X-0.350000X0.625000X-0.350000X-0.625000X0.350000X-0.625000X0*%
%ADD14O,1.200000X1.750000*%
G04 APERTURE END LIST*
D10*
X82696115Y-69872419D02*
X82696115Y-68872419D01*
X82267544Y-69872419D02*
X82267544Y-69348609D01*
X82267544Y-69348609D02*
X82315163Y-69253371D01*
X82315163Y-69253371D02*
X82410401Y-69205752D01*
X82410401Y-69205752D02*
X82553258Y-69205752D01*
X82553258Y-69205752D02*
X82648496Y-69253371D01*
X82648496Y-69253371D02*
X82696115Y-69300990D01*
X81934210Y-69205752D02*
X81553258Y-69205752D01*
X81791353Y-68872419D02*
X81791353Y-69729561D01*
X81791353Y-69729561D02*
X81743734Y-69824800D01*
X81743734Y-69824800D02*
X81648496Y-69872419D01*
X81648496Y-69872419D02*
X81553258Y-69872419D01*
X81362781Y-69205752D02*
X80981829Y-69205752D01*
X81219924Y-68872419D02*
X81219924Y-69729561D01*
X81219924Y-69729561D02*
X81172305Y-69824800D01*
X81172305Y-69824800D02*
X81077067Y-69872419D01*
X81077067Y-69872419D02*
X80981829Y-69872419D01*
X80648495Y-69205752D02*
X80648495Y-70205752D01*
X80648495Y-69253371D02*
X80553257Y-69205752D01*
X80553257Y-69205752D02*
X80362781Y-69205752D01*
X80362781Y-69205752D02*
X80267543Y-69253371D01*
X80267543Y-69253371D02*
X80219924Y-69300990D01*
X80219924Y-69300990D02*
X80172305Y-69396228D01*
X80172305Y-69396228D02*
X80172305Y-69681942D01*
X80172305Y-69681942D02*
X80219924Y-69777180D01*
X80219924Y-69777180D02*
X80267543Y-69824800D01*
X80267543Y-69824800D02*
X80362781Y-69872419D01*
X80362781Y-69872419D02*
X80553257Y-69872419D01*
X80553257Y-69872419D02*
X80648495Y-69824800D01*
X79791352Y-69824800D02*
X79696114Y-69872419D01*
X79696114Y-69872419D02*
X79505638Y-69872419D01*
X79505638Y-69872419D02*
X79410400Y-69824800D01*
X79410400Y-69824800D02*
X79362781Y-69729561D01*
X79362781Y-69729561D02*
X79362781Y-69681942D01*
X79362781Y-69681942D02*
X79410400Y-69586704D01*
X79410400Y-69586704D02*
X79505638Y-69539085D01*
X79505638Y-69539085D02*
X79648495Y-69539085D01*
X79648495Y-69539085D02*
X79743733Y-69491466D01*
X79743733Y-69491466D02*
X79791352Y-69396228D01*
X79791352Y-69396228D02*
X79791352Y-69348609D01*
X79791352Y-69348609D02*
X79743733Y-69253371D01*
X79743733Y-69253371D02*
X79648495Y-69205752D01*
X79648495Y-69205752D02*
X79505638Y-69205752D01*
X79505638Y-69205752D02*
X79410400Y-69253371D01*
X78934209Y-69777180D02*
X78886590Y-69824800D01*
X78886590Y-69824800D02*
X78934209Y-69872419D01*
X78934209Y-69872419D02*
X78981828Y-69824800D01*
X78981828Y-69824800D02*
X78934209Y-69777180D01*
X78934209Y-69777180D02*
X78934209Y-69872419D01*
X78934209Y-69253371D02*
X78886590Y-69300990D01*
X78886590Y-69300990D02*
X78934209Y-69348609D01*
X78934209Y-69348609D02*
X78981828Y-69300990D01*
X78981828Y-69300990D02*
X78934209Y-69253371D01*
X78934209Y-69253371D02*
X78934209Y-69348609D01*
X77743734Y-68824800D02*
X78600876Y-70110514D01*
X76696115Y-68824800D02*
X77553257Y-70110514D01*
X75934210Y-69205752D02*
X75934210Y-70015276D01*
X75934210Y-70015276D02*
X75981829Y-70110514D01*
X75981829Y-70110514D02*
X76029448Y-70158133D01*
X76029448Y-70158133D02*
X76124686Y-70205752D01*
X76124686Y-70205752D02*
X76267543Y-70205752D01*
X76267543Y-70205752D02*
X76362781Y-70158133D01*
X75934210Y-69824800D02*
X76029448Y-69872419D01*
X76029448Y-69872419D02*
X76219924Y-69872419D01*
X76219924Y-69872419D02*
X76315162Y-69824800D01*
X76315162Y-69824800D02*
X76362781Y-69777180D01*
X76362781Y-69777180D02*
X76410400Y-69681942D01*
X76410400Y-69681942D02*
X76410400Y-69396228D01*
X76410400Y-69396228D02*
X76362781Y-69300990D01*
X76362781Y-69300990D02*
X76315162Y-69253371D01*
X76315162Y-69253371D02*
X76219924Y-69205752D01*
X76219924Y-69205752D02*
X76029448Y-69205752D01*
X76029448Y-69205752D02*
X75934210Y-69253371D01*
X75458019Y-69872419D02*
X75458019Y-69205752D01*
X75458019Y-68872419D02*
X75505638Y-68920038D01*
X75505638Y-68920038D02*
X75458019Y-68967657D01*
X75458019Y-68967657D02*
X75410400Y-68920038D01*
X75410400Y-68920038D02*
X75458019Y-68872419D01*
X75458019Y-68872419D02*
X75458019Y-68967657D01*
X75124686Y-69205752D02*
X74743734Y-69205752D01*
X74981829Y-68872419D02*
X74981829Y-69729561D01*
X74981829Y-69729561D02*
X74934210Y-69824800D01*
X74934210Y-69824800D02*
X74838972Y-69872419D01*
X74838972Y-69872419D02*
X74743734Y-69872419D01*
X74410400Y-69872419D02*
X74410400Y-68872419D01*
X73981829Y-69872419D02*
X73981829Y-69348609D01*
X73981829Y-69348609D02*
X74029448Y-69253371D01*
X74029448Y-69253371D02*
X74124686Y-69205752D01*
X74124686Y-69205752D02*
X74267543Y-69205752D01*
X74267543Y-69205752D02*
X74362781Y-69253371D01*
X74362781Y-69253371D02*
X74410400Y-69300990D01*
X73077067Y-69205752D02*
X73077067Y-69872419D01*
X73505638Y-69205752D02*
X73505638Y-69729561D01*
X73505638Y-69729561D02*
X73458019Y-69824800D01*
X73458019Y-69824800D02*
X73362781Y-69872419D01*
X73362781Y-69872419D02*
X73219924Y-69872419D01*
X73219924Y-69872419D02*
X73124686Y-69824800D01*
X73124686Y-69824800D02*
X73077067Y-69777180D01*
X72600876Y-69872419D02*
X72600876Y-68872419D01*
X72600876Y-69253371D02*
X72505638Y-69205752D01*
X72505638Y-69205752D02*
X72315162Y-69205752D01*
X72315162Y-69205752D02*
X72219924Y-69253371D01*
X72219924Y-69253371D02*
X72172305Y-69300990D01*
X72172305Y-69300990D02*
X72124686Y-69396228D01*
X72124686Y-69396228D02*
X72124686Y-69681942D01*
X72124686Y-69681942D02*
X72172305Y-69777180D01*
X72172305Y-69777180D02*
X72219924Y-69824800D01*
X72219924Y-69824800D02*
X72315162Y-69872419D01*
X72315162Y-69872419D02*
X72505638Y-69872419D01*
X72505638Y-69872419D02*
X72600876Y-69824800D01*
X71696114Y-69777180D02*
X71648495Y-69824800D01*
X71648495Y-69824800D02*
X71696114Y-69872419D01*
X71696114Y-69872419D02*
X71743733Y-69824800D01*
X71743733Y-69824800D02*
X71696114Y-69777180D01*
X71696114Y-69777180D02*
X71696114Y-69872419D01*
X70791353Y-69824800D02*
X70886591Y-69872419D01*
X70886591Y-69872419D02*
X71077067Y-69872419D01*
X71077067Y-69872419D02*
X71172305Y-69824800D01*
X71172305Y-69824800D02*
X71219924Y-69777180D01*
X71219924Y-69777180D02*
X71267543Y-69681942D01*
X71267543Y-69681942D02*
X71267543Y-69396228D01*
X71267543Y-69396228D02*
X71219924Y-69300990D01*
X71219924Y-69300990D02*
X71172305Y-69253371D01*
X71172305Y-69253371D02*
X71077067Y-69205752D01*
X71077067Y-69205752D02*
X70886591Y-69205752D01*
X70886591Y-69205752D02*
X70791353Y-69253371D01*
X70219924Y-69872419D02*
X70315162Y-69824800D01*
X70315162Y-69824800D02*
X70362781Y-69777180D01*
X70362781Y-69777180D02*
X70410400Y-69681942D01*
X70410400Y-69681942D02*
X70410400Y-69396228D01*
X70410400Y-69396228D02*
X70362781Y-69300990D01*
X70362781Y-69300990D02*
X70315162Y-69253371D01*
X70315162Y-69253371D02*
X70219924Y-69205752D01*
X70219924Y-69205752D02*
X70077067Y-69205752D01*
X70077067Y-69205752D02*
X69981829Y-69253371D01*
X69981829Y-69253371D02*
X69934210Y-69300990D01*
X69934210Y-69300990D02*
X69886591Y-69396228D01*
X69886591Y-69396228D02*
X69886591Y-69681942D01*
X69886591Y-69681942D02*
X69934210Y-69777180D01*
X69934210Y-69777180D02*
X69981829Y-69824800D01*
X69981829Y-69824800D02*
X70077067Y-69872419D01*
X70077067Y-69872419D02*
X70219924Y-69872419D01*
X69458019Y-69872419D02*
X69458019Y-69205752D01*
X69458019Y-69300990D02*
X69410400Y-69253371D01*
X69410400Y-69253371D02*
X69315162Y-69205752D01*
X69315162Y-69205752D02*
X69172305Y-69205752D01*
X69172305Y-69205752D02*
X69077067Y-69253371D01*
X69077067Y-69253371D02*
X69029448Y-69348609D01*
X69029448Y-69348609D02*
X69029448Y-69872419D01*
X69029448Y-69348609D02*
X68981829Y-69253371D01*
X68981829Y-69253371D02*
X68886591Y-69205752D01*
X68886591Y-69205752D02*
X68743734Y-69205752D01*
X68743734Y-69205752D02*
X68648495Y-69253371D01*
X68648495Y-69253371D02*
X68600876Y-69348609D01*
X68600876Y-69348609D02*
X68600876Y-69872419D01*
X67410401Y-68824800D02*
X68267543Y-70110514D01*
X67219924Y-69205752D02*
X66838972Y-69205752D01*
X67077067Y-68872419D02*
X67077067Y-69729561D01*
X67077067Y-69729561D02*
X67029448Y-69824800D01*
X67029448Y-69824800D02*
X66934210Y-69872419D01*
X66934210Y-69872419D02*
X66838972Y-69872419D01*
X66124686Y-69824800D02*
X66219924Y-69872419D01*
X66219924Y-69872419D02*
X66410400Y-69872419D01*
X66410400Y-69872419D02*
X66505638Y-69824800D01*
X66505638Y-69824800D02*
X66553257Y-69729561D01*
X66553257Y-69729561D02*
X66553257Y-69348609D01*
X66553257Y-69348609D02*
X66505638Y-69253371D01*
X66505638Y-69253371D02*
X66410400Y-69205752D01*
X66410400Y-69205752D02*
X66219924Y-69205752D01*
X66219924Y-69205752D02*
X66124686Y-69253371D01*
X66124686Y-69253371D02*
X66077067Y-69348609D01*
X66077067Y-69348609D02*
X66077067Y-69443847D01*
X66077067Y-69443847D02*
X66553257Y-69539085D01*
X65267543Y-69824800D02*
X65362781Y-69872419D01*
X65362781Y-69872419D02*
X65553257Y-69872419D01*
X65553257Y-69872419D02*
X65648495Y-69824800D01*
X65648495Y-69824800D02*
X65696114Y-69729561D01*
X65696114Y-69729561D02*
X65696114Y-69348609D01*
X65696114Y-69348609D02*
X65648495Y-69253371D01*
X65648495Y-69253371D02*
X65553257Y-69205752D01*
X65553257Y-69205752D02*
X65362781Y-69205752D01*
X65362781Y-69205752D02*
X65267543Y-69253371D01*
X65267543Y-69253371D02*
X65219924Y-69348609D01*
X65219924Y-69348609D02*
X65219924Y-69443847D01*
X65219924Y-69443847D02*
X65696114Y-69539085D01*
X64791352Y-69872419D02*
X64791352Y-68872419D01*
X64362781Y-69872419D02*
X64362781Y-69348609D01*
X64362781Y-69348609D02*
X64410400Y-69253371D01*
X64410400Y-69253371D02*
X64505638Y-69205752D01*
X64505638Y-69205752D02*
X64648495Y-69205752D01*
X64648495Y-69205752D02*
X64743733Y-69253371D01*
X64743733Y-69253371D02*
X64791352Y-69300990D01*
X63505638Y-69824800D02*
X63600876Y-69872419D01*
X63600876Y-69872419D02*
X63791352Y-69872419D01*
X63791352Y-69872419D02*
X63886590Y-69824800D01*
X63886590Y-69824800D02*
X63934209Y-69729561D01*
X63934209Y-69729561D02*
X63934209Y-69348609D01*
X63934209Y-69348609D02*
X63886590Y-69253371D01*
X63886590Y-69253371D02*
X63791352Y-69205752D01*
X63791352Y-69205752D02*
X63600876Y-69205752D01*
X63600876Y-69205752D02*
X63505638Y-69253371D01*
X63505638Y-69253371D02*
X63458019Y-69348609D01*
X63458019Y-69348609D02*
X63458019Y-69443847D01*
X63458019Y-69443847D02*
X63934209Y-69539085D01*
X62648495Y-69824800D02*
X62743733Y-69872419D01*
X62743733Y-69872419D02*
X62934209Y-69872419D01*
X62934209Y-69872419D02*
X63029447Y-69824800D01*
X63029447Y-69824800D02*
X63077066Y-69729561D01*
X63077066Y-69729561D02*
X63077066Y-69348609D01*
X63077066Y-69348609D02*
X63029447Y-69253371D01*
X63029447Y-69253371D02*
X62934209Y-69205752D01*
X62934209Y-69205752D02*
X62743733Y-69205752D01*
X62743733Y-69205752D02*
X62648495Y-69253371D01*
X62648495Y-69253371D02*
X62600876Y-69348609D01*
X62600876Y-69348609D02*
X62600876Y-69443847D01*
X62600876Y-69443847D02*
X63077066Y-69539085D01*
X61696114Y-68872419D02*
X62172304Y-68872419D01*
X62172304Y-68872419D02*
X62219923Y-69348609D01*
X62219923Y-69348609D02*
X62172304Y-69300990D01*
X62172304Y-69300990D02*
X62077066Y-69253371D01*
X62077066Y-69253371D02*
X61838971Y-69253371D01*
X61838971Y-69253371D02*
X61743733Y-69300990D01*
X61743733Y-69300990D02*
X61696114Y-69348609D01*
X61696114Y-69348609D02*
X61648495Y-69443847D01*
X61648495Y-69443847D02*
X61648495Y-69681942D01*
X61648495Y-69681942D02*
X61696114Y-69777180D01*
X61696114Y-69777180D02*
X61743733Y-69824800D01*
X61743733Y-69824800D02*
X61838971Y-69872419D01*
X61838971Y-69872419D02*
X62077066Y-69872419D01*
X62077066Y-69872419D02*
X62172304Y-69824800D01*
X62172304Y-69824800D02*
X62219923Y-69777180D01*
X60791352Y-68872419D02*
X60981828Y-68872419D01*
X60981828Y-68872419D02*
X61077066Y-68920038D01*
X61077066Y-68920038D02*
X61124685Y-68967657D01*
X61124685Y-68967657D02*
X61219923Y-69110514D01*
X61219923Y-69110514D02*
X61267542Y-69300990D01*
X61267542Y-69300990D02*
X61267542Y-69681942D01*
X61267542Y-69681942D02*
X61219923Y-69777180D01*
X61219923Y-69777180D02*
X61172304Y-69824800D01*
X61172304Y-69824800D02*
X61077066Y-69872419D01*
X61077066Y-69872419D02*
X60886590Y-69872419D01*
X60886590Y-69872419D02*
X60791352Y-69824800D01*
X60791352Y-69824800D02*
X60743733Y-69777180D01*
X60743733Y-69777180D02*
X60696114Y-69681942D01*
X60696114Y-69681942D02*
X60696114Y-69443847D01*
X60696114Y-69443847D02*
X60743733Y-69348609D01*
X60743733Y-69348609D02*
X60791352Y-69300990D01*
X60791352Y-69300990D02*
X60886590Y-69253371D01*
X60886590Y-69253371D02*
X61077066Y-69253371D01*
X61077066Y-69253371D02*
X61172304Y-69300990D01*
X61172304Y-69300990D02*
X61219923Y-69348609D01*
X61219923Y-69348609D02*
X61267542Y-69443847D01*
X60362780Y-68872419D02*
X59696114Y-68872419D01*
X59696114Y-68872419D02*
X60124685Y-69872419D01*
X105553258Y-69872419D02*
X105648496Y-69824800D01*
X105648496Y-69824800D02*
X105696115Y-69777180D01*
X105696115Y-69777180D02*
X105743734Y-69681942D01*
X105743734Y-69681942D02*
X105743734Y-69396228D01*
X105743734Y-69396228D02*
X105696115Y-69300990D01*
X105696115Y-69300990D02*
X105648496Y-69253371D01*
X105648496Y-69253371D02*
X105553258Y-69205752D01*
X105553258Y-69205752D02*
X105410401Y-69205752D01*
X105410401Y-69205752D02*
X105315163Y-69253371D01*
X105315163Y-69253371D02*
X105267544Y-69300990D01*
X105267544Y-69300990D02*
X105219925Y-69396228D01*
X105219925Y-69396228D02*
X105219925Y-69681942D01*
X105219925Y-69681942D02*
X105267544Y-69777180D01*
X105267544Y-69777180D02*
X105315163Y-69824800D01*
X105315163Y-69824800D02*
X105410401Y-69872419D01*
X105410401Y-69872419D02*
X105553258Y-69872419D01*
X104791353Y-69205752D02*
X104791353Y-70205752D01*
X104791353Y-69253371D02*
X104696115Y-69205752D01*
X104696115Y-69205752D02*
X104505639Y-69205752D01*
X104505639Y-69205752D02*
X104410401Y-69253371D01*
X104410401Y-69253371D02*
X104362782Y-69300990D01*
X104362782Y-69300990D02*
X104315163Y-69396228D01*
X104315163Y-69396228D02*
X104315163Y-69681942D01*
X104315163Y-69681942D02*
X104362782Y-69777180D01*
X104362782Y-69777180D02*
X104410401Y-69824800D01*
X104410401Y-69824800D02*
X104505639Y-69872419D01*
X104505639Y-69872419D02*
X104696115Y-69872419D01*
X104696115Y-69872419D02*
X104791353Y-69824800D01*
X103505639Y-69824800D02*
X103600877Y-69872419D01*
X103600877Y-69872419D02*
X103791353Y-69872419D01*
X103791353Y-69872419D02*
X103886591Y-69824800D01*
X103886591Y-69824800D02*
X103934210Y-69729561D01*
X103934210Y-69729561D02*
X103934210Y-69348609D01*
X103934210Y-69348609D02*
X103886591Y-69253371D01*
X103886591Y-69253371D02*
X103791353Y-69205752D01*
X103791353Y-69205752D02*
X103600877Y-69205752D01*
X103600877Y-69205752D02*
X103505639Y-69253371D01*
X103505639Y-69253371D02*
X103458020Y-69348609D01*
X103458020Y-69348609D02*
X103458020Y-69443847D01*
X103458020Y-69443847D02*
X103934210Y-69539085D01*
X103029448Y-69205752D02*
X103029448Y-69872419D01*
X103029448Y-69300990D02*
X102981829Y-69253371D01*
X102981829Y-69253371D02*
X102886591Y-69205752D01*
X102886591Y-69205752D02*
X102743734Y-69205752D01*
X102743734Y-69205752D02*
X102648496Y-69253371D01*
X102648496Y-69253371D02*
X102600877Y-69348609D01*
X102600877Y-69348609D02*
X102600877Y-69872419D01*
X102124686Y-69491466D02*
X101362782Y-69491466D01*
X100886591Y-69872419D02*
X100886591Y-69205752D01*
X100886591Y-69396228D02*
X100838972Y-69300990D01*
X100838972Y-69300990D02*
X100791353Y-69253371D01*
X100791353Y-69253371D02*
X100696115Y-69205752D01*
X100696115Y-69205752D02*
X100600877Y-69205752D01*
X99838972Y-69872419D02*
X99838972Y-69348609D01*
X99838972Y-69348609D02*
X99886591Y-69253371D01*
X99886591Y-69253371D02*
X99981829Y-69205752D01*
X99981829Y-69205752D02*
X100172305Y-69205752D01*
X100172305Y-69205752D02*
X100267543Y-69253371D01*
X99838972Y-69824800D02*
X99934210Y-69872419D01*
X99934210Y-69872419D02*
X100172305Y-69872419D01*
X100172305Y-69872419D02*
X100267543Y-69824800D01*
X100267543Y-69824800D02*
X100315162Y-69729561D01*
X100315162Y-69729561D02*
X100315162Y-69634323D01*
X100315162Y-69634323D02*
X100267543Y-69539085D01*
X100267543Y-69539085D02*
X100172305Y-69491466D01*
X100172305Y-69491466D02*
X99934210Y-69491466D01*
X99934210Y-69491466D02*
X99838972Y-69443847D01*
X98934210Y-69824800D02*
X99029448Y-69872419D01*
X99029448Y-69872419D02*
X99219924Y-69872419D01*
X99219924Y-69872419D02*
X99315162Y-69824800D01*
X99315162Y-69824800D02*
X99362781Y-69777180D01*
X99362781Y-69777180D02*
X99410400Y-69681942D01*
X99410400Y-69681942D02*
X99410400Y-69396228D01*
X99410400Y-69396228D02*
X99362781Y-69300990D01*
X99362781Y-69300990D02*
X99315162Y-69253371D01*
X99315162Y-69253371D02*
X99219924Y-69205752D01*
X99219924Y-69205752D02*
X99029448Y-69205752D01*
X99029448Y-69205752D02*
X98934210Y-69253371D01*
X98124686Y-69824800D02*
X98219924Y-69872419D01*
X98219924Y-69872419D02*
X98410400Y-69872419D01*
X98410400Y-69872419D02*
X98505638Y-69824800D01*
X98505638Y-69824800D02*
X98553257Y-69729561D01*
X98553257Y-69729561D02*
X98553257Y-69348609D01*
X98553257Y-69348609D02*
X98505638Y-69253371D01*
X98505638Y-69253371D02*
X98410400Y-69205752D01*
X98410400Y-69205752D02*
X98219924Y-69205752D01*
X98219924Y-69205752D02*
X98124686Y-69253371D01*
X98124686Y-69253371D02*
X98077067Y-69348609D01*
X98077067Y-69348609D02*
X98077067Y-69443847D01*
X98077067Y-69443847D02*
X98553257Y-69539085D01*
X97648495Y-69872419D02*
X97648495Y-68872419D01*
X97648495Y-69253371D02*
X97553257Y-69205752D01*
X97553257Y-69205752D02*
X97362781Y-69205752D01*
X97362781Y-69205752D02*
X97267543Y-69253371D01*
X97267543Y-69253371D02*
X97219924Y-69300990D01*
X97219924Y-69300990D02*
X97172305Y-69396228D01*
X97172305Y-69396228D02*
X97172305Y-69681942D01*
X97172305Y-69681942D02*
X97219924Y-69777180D01*
X97219924Y-69777180D02*
X97267543Y-69824800D01*
X97267543Y-69824800D02*
X97362781Y-69872419D01*
X97362781Y-69872419D02*
X97553257Y-69872419D01*
X97553257Y-69872419D02*
X97648495Y-69824800D01*
X96600876Y-69872419D02*
X96696114Y-69824800D01*
X96696114Y-69824800D02*
X96743733Y-69777180D01*
X96743733Y-69777180D02*
X96791352Y-69681942D01*
X96791352Y-69681942D02*
X96791352Y-69396228D01*
X96791352Y-69396228D02*
X96743733Y-69300990D01*
X96743733Y-69300990D02*
X96696114Y-69253371D01*
X96696114Y-69253371D02*
X96600876Y-69205752D01*
X96600876Y-69205752D02*
X96458019Y-69205752D01*
X96458019Y-69205752D02*
X96362781Y-69253371D01*
X96362781Y-69253371D02*
X96315162Y-69300990D01*
X96315162Y-69300990D02*
X96267543Y-69396228D01*
X96267543Y-69396228D02*
X96267543Y-69681942D01*
X96267543Y-69681942D02*
X96315162Y-69777180D01*
X96315162Y-69777180D02*
X96362781Y-69824800D01*
X96362781Y-69824800D02*
X96458019Y-69872419D01*
X96458019Y-69872419D02*
X96600876Y-69872419D01*
X95934209Y-69872419D02*
X95410400Y-69205752D01*
X95934209Y-69205752D02*
X95410400Y-69872419D01*
X94410399Y-68872419D02*
X94077066Y-69872419D01*
X94077066Y-69872419D02*
X93743733Y-68872419D01*
X92886590Y-69872419D02*
X93458018Y-69872419D01*
X93172304Y-69872419D02*
X93172304Y-68872419D01*
X93172304Y-68872419D02*
X93267542Y-69015276D01*
X93267542Y-69015276D02*
X93362780Y-69110514D01*
X93362780Y-69110514D02*
X93458018Y-69158133D01*
X111196115Y-51372419D02*
X111196115Y-50705752D01*
X111196115Y-50800990D02*
X111148496Y-50753371D01*
X111148496Y-50753371D02*
X111053258Y-50705752D01*
X111053258Y-50705752D02*
X110910401Y-50705752D01*
X110910401Y-50705752D02*
X110815163Y-50753371D01*
X110815163Y-50753371D02*
X110767544Y-50848609D01*
X110767544Y-50848609D02*
X110767544Y-51372419D01*
X110767544Y-50848609D02*
X110719925Y-50753371D01*
X110719925Y-50753371D02*
X110624687Y-50705752D01*
X110624687Y-50705752D02*
X110481830Y-50705752D01*
X110481830Y-50705752D02*
X110386591Y-50753371D01*
X110386591Y-50753371D02*
X110338972Y-50848609D01*
X110338972Y-50848609D02*
X110338972Y-51372419D01*
X109481830Y-51324800D02*
X109577068Y-51372419D01*
X109577068Y-51372419D02*
X109767544Y-51372419D01*
X109767544Y-51372419D02*
X109862782Y-51324800D01*
X109862782Y-51324800D02*
X109910401Y-51229561D01*
X109910401Y-51229561D02*
X109910401Y-50848609D01*
X109910401Y-50848609D02*
X109862782Y-50753371D01*
X109862782Y-50753371D02*
X109767544Y-50705752D01*
X109767544Y-50705752D02*
X109577068Y-50705752D01*
X109577068Y-50705752D02*
X109481830Y-50753371D01*
X109481830Y-50753371D02*
X109434211Y-50848609D01*
X109434211Y-50848609D02*
X109434211Y-50943847D01*
X109434211Y-50943847D02*
X109910401Y-51039085D01*
X108862782Y-51372419D02*
X108958020Y-51324800D01*
X108958020Y-51324800D02*
X109005639Y-51277180D01*
X109005639Y-51277180D02*
X109053258Y-51181942D01*
X109053258Y-51181942D02*
X109053258Y-50896228D01*
X109053258Y-50896228D02*
X109005639Y-50800990D01*
X109005639Y-50800990D02*
X108958020Y-50753371D01*
X108958020Y-50753371D02*
X108862782Y-50705752D01*
X108862782Y-50705752D02*
X108719925Y-50705752D01*
X108719925Y-50705752D02*
X108624687Y-50753371D01*
X108624687Y-50753371D02*
X108577068Y-50800990D01*
X108577068Y-50800990D02*
X108529449Y-50896228D01*
X108529449Y-50896228D02*
X108529449Y-51181942D01*
X108529449Y-51181942D02*
X108577068Y-51277180D01*
X108577068Y-51277180D02*
X108624687Y-51324800D01*
X108624687Y-51324800D02*
X108719925Y-51372419D01*
X108719925Y-51372419D02*
X108862782Y-51372419D01*
X108196115Y-50705752D02*
X108005639Y-51372419D01*
X108005639Y-51372419D02*
X107815163Y-50896228D01*
X107815163Y-50896228D02*
X107624687Y-51372419D01*
X107624687Y-51372419D02*
X107434211Y-50705752D01*
D11*
X101303258Y-57005523D02*
X101303258Y-63672190D01*
X101303258Y-57957904D02*
X100827068Y-57481714D01*
X100827068Y-57481714D02*
X99874687Y-57005523D01*
X99874687Y-57005523D02*
X98446115Y-57005523D01*
X98446115Y-57005523D02*
X97493734Y-57481714D01*
X97493734Y-57481714D02*
X97017544Y-58434095D01*
X97017544Y-58434095D02*
X97017544Y-63672190D01*
X90827068Y-63672190D02*
X91779449Y-63196000D01*
X91779449Y-63196000D02*
X92255639Y-62719809D01*
X92255639Y-62719809D02*
X92731830Y-61767428D01*
X92731830Y-61767428D02*
X92731830Y-58910285D01*
X92731830Y-58910285D02*
X92255639Y-57957904D01*
X92255639Y-57957904D02*
X91779449Y-57481714D01*
X91779449Y-57481714D02*
X90827068Y-57005523D01*
X90827068Y-57005523D02*
X89398496Y-57005523D01*
X89398496Y-57005523D02*
X88446115Y-57481714D01*
X88446115Y-57481714D02*
X87969925Y-57957904D01*
X87969925Y-57957904D02*
X87493734Y-58910285D01*
X87493734Y-58910285D02*
X87493734Y-61767428D01*
X87493734Y-61767428D02*
X87969925Y-62719809D01*
X87969925Y-62719809D02*
X88446115Y-63196000D01*
X88446115Y-63196000D02*
X89398496Y-63672190D01*
X89398496Y-63672190D02*
X90827068Y-63672190D01*
X81779449Y-63672190D02*
X82731830Y-63196000D01*
X82731830Y-63196000D02*
X83208020Y-62719809D01*
X83208020Y-62719809D02*
X83684211Y-61767428D01*
X83684211Y-61767428D02*
X83684211Y-58910285D01*
X83684211Y-58910285D02*
X83208020Y-57957904D01*
X83208020Y-57957904D02*
X82731830Y-57481714D01*
X82731830Y-57481714D02*
X81779449Y-57005523D01*
X81779449Y-57005523D02*
X80350877Y-57005523D01*
X80350877Y-57005523D02*
X79398496Y-57481714D01*
X79398496Y-57481714D02*
X78922306Y-57957904D01*
X78922306Y-57957904D02*
X78446115Y-58910285D01*
X78446115Y-58910285D02*
X78446115Y-61767428D01*
X78446115Y-61767428D02*
X78922306Y-62719809D01*
X78922306Y-62719809D02*
X79398496Y-63196000D01*
X79398496Y-63196000D02*
X80350877Y-63672190D01*
X80350877Y-63672190D02*
X81779449Y-63672190D01*
X74160401Y-63672190D02*
X74160401Y-53672190D01*
X74160401Y-57481714D02*
X73208020Y-57005523D01*
X73208020Y-57005523D02*
X71303258Y-57005523D01*
X71303258Y-57005523D02*
X70350877Y-57481714D01*
X70350877Y-57481714D02*
X69874687Y-57957904D01*
X69874687Y-57957904D02*
X69398496Y-58910285D01*
X69398496Y-58910285D02*
X69398496Y-61767428D01*
X69398496Y-61767428D02*
X69874687Y-62719809D01*
X69874687Y-62719809D02*
X70350877Y-63196000D01*
X70350877Y-63196000D02*
X71303258Y-63672190D01*
X71303258Y-63672190D02*
X73208020Y-63672190D01*
X73208020Y-63672190D02*
X74160401Y-63196000D01*
%LPC*%
D12*
%TO.C,REF\u002A\u002A*%
X109500000Y-66500000D03*
%TD*%
D13*
%TO.C,BT1*%
X87000000Y-55950000D03*
D14*
X85000000Y-55950000D03*
%TD*%
%LPD*%
M02*
