M48
; DRILL file KiCad 10.0.0 date 2026-04-05T20:01:56
; FORMAT={-:-/ absolute / inch / decimal}
; #@! TF.CreationDate,2026-04-05T20:01:56+10:00
; #@! TF.GenerationSoftware,Kicad,Pcbnew,10.0.0
; #@! TF.FileFunction,Plated,1,4,PTH
FMAT,2
INCH
; #@! TA.AperFunction,Plated,PTH,ViaDrill
T1C0.0118
; #@! TA.AperFunction,Plated,PTH,ComponentDrill
T2C0.0295
; #@! TA.AperFunction,Plated,PTH,ComponentDrill
T3C0.1260
%
G90
G05
T1
X2.4875Y-2.0551
X2.5984Y-2.6969
X2.6002Y-2.5494
X2.6752Y-2.5494
X3.1713Y-2.5197
X3.189Y-2.185
X3.189Y-2.6181
X3.2106Y-2.4321
X3.248Y-2.5197
X3.3265Y-2.5699
X3.3605Y-2.4016
X3.3979Y-2.4911
X3.3979Y-2.6486
X3.3984Y-2.5699
X3.4195Y-2.3228
X3.4646Y-2.6575
X3.4665Y-2.5787
X3.5413Y-2.5787
X3.6339Y-2.1339
X3.6339Y-2.685
X4.0866Y-2.1339
X4.098Y-2.4252
X4.098Y-2.5984
X4.1063Y-2.2126
X4.252Y-2.4016
X4.3622Y-2.1142
X4.3622Y-2.2323
X4.4213Y-2.1732
T2
X3.3465Y-2.2028
X3.4252Y-2.2028
T3
X4.311Y-2.6181
M30
