%TF.GenerationSoftware,KiCad,Pcbnew,10.0.0*%
%TF.CreationDate,2026-04-05T16:23:16+10:00*%
%TF.ProjectId,pcb,7063622e-6b69-4636-9164-5f7063625858,rev?*%
%TF.SameCoordinates,Original*%
%TF.FileFunction,Legend,Top*%
%TF.FilePolarity,Positive*%
%FSLAX46Y46*%
G04 Gerber Fmt 4.6, Leading zero omitted, Abs format (unit mm)*
G04 Created by KiCad (PCBNEW 10.0.0) date 2026-04-05 16:23:16*
%MOMM*%
%LPD*%
G01*
G04 APERTURE LIST*
%ADD10C,0.150000*%
%ADD11C,0.106680*%
%ADD12C,0.100000*%
%ADD13C,0.127000*%
%ADD14C,0.504000*%
%ADD15C,0.120000*%
%ADD16C,0.200000*%
G04 APERTURE END LIST*
D10*
X106666666Y-62804819D02*
X106333333Y-62328628D01*
X106095238Y-62804819D02*
X106095238Y-61804819D01*
X106095238Y-61804819D02*
X106476190Y-61804819D01*
X106476190Y-61804819D02*
X106571428Y-61852438D01*
X106571428Y-61852438D02*
X106619047Y-61900057D01*
X106619047Y-61900057D02*
X106666666Y-61995295D01*
X106666666Y-61995295D02*
X106666666Y-62138152D01*
X106666666Y-62138152D02*
X106619047Y-62233390D01*
X106619047Y-62233390D02*
X106571428Y-62281009D01*
X106571428Y-62281009D02*
X106476190Y-62328628D01*
X106476190Y-62328628D02*
X106095238Y-62328628D01*
X107095238Y-62281009D02*
X107428571Y-62281009D01*
X107571428Y-62804819D02*
X107095238Y-62804819D01*
X107095238Y-62804819D02*
X107095238Y-61804819D01*
X107095238Y-61804819D02*
X107571428Y-61804819D01*
X108333333Y-62281009D02*
X108000000Y-62281009D01*
X108000000Y-62804819D02*
X108000000Y-61804819D01*
X108000000Y-61804819D02*
X108476190Y-61804819D01*
X109000000Y-61804819D02*
X109000000Y-62042914D01*
X108761905Y-61947676D02*
X109000000Y-62042914D01*
X109000000Y-62042914D02*
X109238095Y-61947676D01*
X108857143Y-62233390D02*
X109000000Y-62042914D01*
X109000000Y-62042914D02*
X109142857Y-62233390D01*
X109761905Y-61804819D02*
X109761905Y-62042914D01*
X109523810Y-61947676D02*
X109761905Y-62042914D01*
X109761905Y-62042914D02*
X110000000Y-61947676D01*
X109619048Y-62233390D02*
X109761905Y-62042914D01*
X109761905Y-62042914D02*
X109904762Y-62233390D01*
D11*
X56543491Y-61831549D02*
X57176798Y-61831549D01*
X57176798Y-61831549D02*
X57251304Y-61794296D01*
X57251304Y-61794296D02*
X57288558Y-61757042D01*
X57288558Y-61757042D02*
X57325811Y-61682536D01*
X57325811Y-61682536D02*
X57325811Y-61533522D01*
X57325811Y-61533522D02*
X57288558Y-61459016D01*
X57288558Y-61459016D02*
X57251304Y-61421762D01*
X57251304Y-61421762D02*
X57176798Y-61384509D01*
X57176798Y-61384509D02*
X56543491Y-61384509D01*
X57325811Y-60602189D02*
X57325811Y-61049229D01*
X57325811Y-60825709D02*
X56543491Y-60825709D01*
X56543491Y-60825709D02*
X56655251Y-60900216D01*
X56655251Y-60900216D02*
X56729758Y-60974723D01*
X56729758Y-60974723D02*
X56767011Y-61049229D01*
D10*
X108124819Y-53916666D02*
X108124819Y-54392856D01*
X108124819Y-54392856D02*
X107124819Y-54392856D01*
X108124819Y-53059523D02*
X108124819Y-53630951D01*
X108124819Y-53345237D02*
X107124819Y-53345237D01*
X107124819Y-53345237D02*
X107267676Y-53440475D01*
X107267676Y-53440475D02*
X107362914Y-53535713D01*
X107362914Y-53535713D02*
X107410533Y-53630951D01*
X104813333Y-56769580D02*
X104765714Y-56817200D01*
X104765714Y-56817200D02*
X104622857Y-56864819D01*
X104622857Y-56864819D02*
X104527619Y-56864819D01*
X104527619Y-56864819D02*
X104384762Y-56817200D01*
X104384762Y-56817200D02*
X104289524Y-56721961D01*
X104289524Y-56721961D02*
X104241905Y-56626723D01*
X104241905Y-56626723D02*
X104194286Y-56436247D01*
X104194286Y-56436247D02*
X104194286Y-56293390D01*
X104194286Y-56293390D02*
X104241905Y-56102914D01*
X104241905Y-56102914D02*
X104289524Y-56007676D01*
X104289524Y-56007676D02*
X104384762Y-55912438D01*
X104384762Y-55912438D02*
X104527619Y-55864819D01*
X104527619Y-55864819D02*
X104622857Y-55864819D01*
X104622857Y-55864819D02*
X104765714Y-55912438D01*
X104765714Y-55912438D02*
X104813333Y-55960057D01*
X105718095Y-55864819D02*
X105241905Y-55864819D01*
X105241905Y-55864819D02*
X105194286Y-56341009D01*
X105194286Y-56341009D02*
X105241905Y-56293390D01*
X105241905Y-56293390D02*
X105337143Y-56245771D01*
X105337143Y-56245771D02*
X105575238Y-56245771D01*
X105575238Y-56245771D02*
X105670476Y-56293390D01*
X105670476Y-56293390D02*
X105718095Y-56341009D01*
X105718095Y-56341009D02*
X105765714Y-56436247D01*
X105765714Y-56436247D02*
X105765714Y-56674342D01*
X105765714Y-56674342D02*
X105718095Y-56769580D01*
X105718095Y-56769580D02*
X105670476Y-56817200D01*
X105670476Y-56817200D02*
X105575238Y-56864819D01*
X105575238Y-56864819D02*
X105337143Y-56864819D01*
X105337143Y-56864819D02*
X105241905Y-56817200D01*
X105241905Y-56817200D02*
X105194286Y-56769580D01*
X78604819Y-61399404D02*
X79414342Y-61399404D01*
X79414342Y-61399404D02*
X79509580Y-61351785D01*
X79509580Y-61351785D02*
X79557200Y-61304166D01*
X79557200Y-61304166D02*
X79604819Y-61208928D01*
X79604819Y-61208928D02*
X79604819Y-61018452D01*
X79604819Y-61018452D02*
X79557200Y-60923214D01*
X79557200Y-60923214D02*
X79509580Y-60875595D01*
X79509580Y-60875595D02*
X79414342Y-60827976D01*
X79414342Y-60827976D02*
X78604819Y-60827976D01*
X78604819Y-60447023D02*
X78604819Y-59827976D01*
X78604819Y-59827976D02*
X78985771Y-60161309D01*
X78985771Y-60161309D02*
X78985771Y-60018452D01*
X78985771Y-60018452D02*
X79033390Y-59923214D01*
X79033390Y-59923214D02*
X79081009Y-59875595D01*
X79081009Y-59875595D02*
X79176247Y-59827976D01*
X79176247Y-59827976D02*
X79414342Y-59827976D01*
X79414342Y-59827976D02*
X79509580Y-59875595D01*
X79509580Y-59875595D02*
X79557200Y-59923214D01*
X79557200Y-59923214D02*
X79604819Y-60018452D01*
X79604819Y-60018452D02*
X79604819Y-60304166D01*
X79604819Y-60304166D02*
X79557200Y-60399404D01*
X79557200Y-60399404D02*
X79509580Y-60447023D01*
X98958095Y-70339819D02*
X98958095Y-71149342D01*
X98958095Y-71149342D02*
X99005714Y-71244580D01*
X99005714Y-71244580D02*
X99053333Y-71292200D01*
X99053333Y-71292200D02*
X99148571Y-71339819D01*
X99148571Y-71339819D02*
X99339047Y-71339819D01*
X99339047Y-71339819D02*
X99434285Y-71292200D01*
X99434285Y-71292200D02*
X99481904Y-71244580D01*
X99481904Y-71244580D02*
X99529523Y-71149342D01*
X99529523Y-71149342D02*
X99529523Y-70339819D01*
X99958095Y-70435057D02*
X100005714Y-70387438D01*
X100005714Y-70387438D02*
X100100952Y-70339819D01*
X100100952Y-70339819D02*
X100339047Y-70339819D01*
X100339047Y-70339819D02*
X100434285Y-70387438D01*
X100434285Y-70387438D02*
X100481904Y-70435057D01*
X100481904Y-70435057D02*
X100529523Y-70530295D01*
X100529523Y-70530295D02*
X100529523Y-70625533D01*
X100529523Y-70625533D02*
X100481904Y-70768390D01*
X100481904Y-70768390D02*
X99910476Y-71339819D01*
X99910476Y-71339819D02*
X100529523Y-71339819D01*
X83104819Y-53079166D02*
X82628628Y-53412499D01*
X83104819Y-53650594D02*
X82104819Y-53650594D01*
X82104819Y-53650594D02*
X82104819Y-53269642D01*
X82104819Y-53269642D02*
X82152438Y-53174404D01*
X82152438Y-53174404D02*
X82200057Y-53126785D01*
X82200057Y-53126785D02*
X82295295Y-53079166D01*
X82295295Y-53079166D02*
X82438152Y-53079166D01*
X82438152Y-53079166D02*
X82533390Y-53126785D01*
X82533390Y-53126785D02*
X82581009Y-53174404D01*
X82581009Y-53174404D02*
X82628628Y-53269642D01*
X82628628Y-53269642D02*
X82628628Y-53650594D01*
X82200057Y-52698213D02*
X82152438Y-52650594D01*
X82152438Y-52650594D02*
X82104819Y-52555356D01*
X82104819Y-52555356D02*
X82104819Y-52317261D01*
X82104819Y-52317261D02*
X82152438Y-52222023D01*
X82152438Y-52222023D02*
X82200057Y-52174404D01*
X82200057Y-52174404D02*
X82295295Y-52126785D01*
X82295295Y-52126785D02*
X82390533Y-52126785D01*
X82390533Y-52126785D02*
X82533390Y-52174404D01*
X82533390Y-52174404D02*
X83104819Y-52745832D01*
X83104819Y-52745832D02*
X83104819Y-52126785D01*
X79804819Y-67579166D02*
X79328628Y-67912499D01*
X79804819Y-68150594D02*
X78804819Y-68150594D01*
X78804819Y-68150594D02*
X78804819Y-67769642D01*
X78804819Y-67769642D02*
X78852438Y-67674404D01*
X78852438Y-67674404D02*
X78900057Y-67626785D01*
X78900057Y-67626785D02*
X78995295Y-67579166D01*
X78995295Y-67579166D02*
X79138152Y-67579166D01*
X79138152Y-67579166D02*
X79233390Y-67626785D01*
X79233390Y-67626785D02*
X79281009Y-67674404D01*
X79281009Y-67674404D02*
X79328628Y-67769642D01*
X79328628Y-67769642D02*
X79328628Y-68150594D01*
X79804819Y-66626785D02*
X79804819Y-67198213D01*
X79804819Y-66912499D02*
X78804819Y-66912499D01*
X78804819Y-66912499D02*
X78947676Y-67007737D01*
X78947676Y-67007737D02*
X79042914Y-67102975D01*
X79042914Y-67102975D02*
X79090533Y-67198213D01*
X105454819Y-55583333D02*
X106169104Y-55583333D01*
X106169104Y-55583333D02*
X106311961Y-55630952D01*
X106311961Y-55630952D02*
X106407200Y-55726190D01*
X106407200Y-55726190D02*
X106454819Y-55869047D01*
X106454819Y-55869047D02*
X106454819Y-55964285D01*
X106454819Y-54583333D02*
X106454819Y-55154761D01*
X106454819Y-54869047D02*
X105454819Y-54869047D01*
X105454819Y-54869047D02*
X105597676Y-54964285D01*
X105597676Y-54964285D02*
X105692914Y-55059523D01*
X105692914Y-55059523D02*
X105740533Y-55154761D01*
X88039580Y-68366666D02*
X88087200Y-68414285D01*
X88087200Y-68414285D02*
X88134819Y-68557142D01*
X88134819Y-68557142D02*
X88134819Y-68652380D01*
X88134819Y-68652380D02*
X88087200Y-68795237D01*
X88087200Y-68795237D02*
X87991961Y-68890475D01*
X87991961Y-68890475D02*
X87896723Y-68938094D01*
X87896723Y-68938094D02*
X87706247Y-68985713D01*
X87706247Y-68985713D02*
X87563390Y-68985713D01*
X87563390Y-68985713D02*
X87372914Y-68938094D01*
X87372914Y-68938094D02*
X87277676Y-68890475D01*
X87277676Y-68890475D02*
X87182438Y-68795237D01*
X87182438Y-68795237D02*
X87134819Y-68652380D01*
X87134819Y-68652380D02*
X87134819Y-68557142D01*
X87134819Y-68557142D02*
X87182438Y-68414285D01*
X87182438Y-68414285D02*
X87230057Y-68366666D01*
X87468152Y-67509523D02*
X88134819Y-67509523D01*
X87087200Y-67747618D02*
X87801485Y-67985713D01*
X87801485Y-67985713D02*
X87801485Y-67366666D01*
X87179580Y-68366666D02*
X87227200Y-68414285D01*
X87227200Y-68414285D02*
X87274819Y-68557142D01*
X87274819Y-68557142D02*
X87274819Y-68652380D01*
X87274819Y-68652380D02*
X87227200Y-68795237D01*
X87227200Y-68795237D02*
X87131961Y-68890475D01*
X87131961Y-68890475D02*
X87036723Y-68938094D01*
X87036723Y-68938094D02*
X86846247Y-68985713D01*
X86846247Y-68985713D02*
X86703390Y-68985713D01*
X86703390Y-68985713D02*
X86512914Y-68938094D01*
X86512914Y-68938094D02*
X86417676Y-68890475D01*
X86417676Y-68890475D02*
X86322438Y-68795237D01*
X86322438Y-68795237D02*
X86274819Y-68652380D01*
X86274819Y-68652380D02*
X86274819Y-68557142D01*
X86274819Y-68557142D02*
X86322438Y-68414285D01*
X86322438Y-68414285D02*
X86370057Y-68366666D01*
X86274819Y-68033332D02*
X86274819Y-67414285D01*
X86274819Y-67414285D02*
X86655771Y-67747618D01*
X86655771Y-67747618D02*
X86655771Y-67604761D01*
X86655771Y-67604761D02*
X86703390Y-67509523D01*
X86703390Y-67509523D02*
X86751009Y-67461904D01*
X86751009Y-67461904D02*
X86846247Y-67414285D01*
X86846247Y-67414285D02*
X87084342Y-67414285D01*
X87084342Y-67414285D02*
X87179580Y-67461904D01*
X87179580Y-67461904D02*
X87227200Y-67509523D01*
X87227200Y-67509523D02*
X87274819Y-67604761D01*
X87274819Y-67604761D02*
X87274819Y-67890475D01*
X87274819Y-67890475D02*
X87227200Y-67985713D01*
X87227200Y-67985713D02*
X87179580Y-68033332D01*
X79679580Y-56616666D02*
X79727200Y-56664285D01*
X79727200Y-56664285D02*
X79774819Y-56807142D01*
X79774819Y-56807142D02*
X79774819Y-56902380D01*
X79774819Y-56902380D02*
X79727200Y-57045237D01*
X79727200Y-57045237D02*
X79631961Y-57140475D01*
X79631961Y-57140475D02*
X79536723Y-57188094D01*
X79536723Y-57188094D02*
X79346247Y-57235713D01*
X79346247Y-57235713D02*
X79203390Y-57235713D01*
X79203390Y-57235713D02*
X79012914Y-57188094D01*
X79012914Y-57188094D02*
X78917676Y-57140475D01*
X78917676Y-57140475D02*
X78822438Y-57045237D01*
X78822438Y-57045237D02*
X78774819Y-56902380D01*
X78774819Y-56902380D02*
X78774819Y-56807142D01*
X78774819Y-56807142D02*
X78822438Y-56664285D01*
X78822438Y-56664285D02*
X78870057Y-56616666D01*
X78870057Y-56235713D02*
X78822438Y-56188094D01*
X78822438Y-56188094D02*
X78774819Y-56092856D01*
X78774819Y-56092856D02*
X78774819Y-55854761D01*
X78774819Y-55854761D02*
X78822438Y-55759523D01*
X78822438Y-55759523D02*
X78870057Y-55711904D01*
X78870057Y-55711904D02*
X78965295Y-55664285D01*
X78965295Y-55664285D02*
X79060533Y-55664285D01*
X79060533Y-55664285D02*
X79203390Y-55711904D01*
X79203390Y-55711904D02*
X79774819Y-56283332D01*
X79774819Y-56283332D02*
X79774819Y-55664285D01*
X81333333Y-62359580D02*
X81285714Y-62407200D01*
X81285714Y-62407200D02*
X81142857Y-62454819D01*
X81142857Y-62454819D02*
X81047619Y-62454819D01*
X81047619Y-62454819D02*
X80904762Y-62407200D01*
X80904762Y-62407200D02*
X80809524Y-62311961D01*
X80809524Y-62311961D02*
X80761905Y-62216723D01*
X80761905Y-62216723D02*
X80714286Y-62026247D01*
X80714286Y-62026247D02*
X80714286Y-61883390D01*
X80714286Y-61883390D02*
X80761905Y-61692914D01*
X80761905Y-61692914D02*
X80809524Y-61597676D01*
X80809524Y-61597676D02*
X80904762Y-61502438D01*
X80904762Y-61502438D02*
X81047619Y-61454819D01*
X81047619Y-61454819D02*
X81142857Y-61454819D01*
X81142857Y-61454819D02*
X81285714Y-61502438D01*
X81285714Y-61502438D02*
X81333333Y-61550057D01*
X82285714Y-62454819D02*
X81714286Y-62454819D01*
X82000000Y-62454819D02*
X82000000Y-61454819D01*
X82000000Y-61454819D02*
X81904762Y-61597676D01*
X81904762Y-61597676D02*
X81809524Y-61692914D01*
X81809524Y-61692914D02*
X81714286Y-61740533D01*
X85214285Y-58431009D02*
X85357142Y-58478628D01*
X85357142Y-58478628D02*
X85404761Y-58526247D01*
X85404761Y-58526247D02*
X85452380Y-58621485D01*
X85452380Y-58621485D02*
X85452380Y-58764342D01*
X85452380Y-58764342D02*
X85404761Y-58859580D01*
X85404761Y-58859580D02*
X85357142Y-58907200D01*
X85357142Y-58907200D02*
X85261904Y-58954819D01*
X85261904Y-58954819D02*
X84880952Y-58954819D01*
X84880952Y-58954819D02*
X84880952Y-57954819D01*
X84880952Y-57954819D02*
X85214285Y-57954819D01*
X85214285Y-57954819D02*
X85309523Y-58002438D01*
X85309523Y-58002438D02*
X85357142Y-58050057D01*
X85357142Y-58050057D02*
X85404761Y-58145295D01*
X85404761Y-58145295D02*
X85404761Y-58240533D01*
X85404761Y-58240533D02*
X85357142Y-58335771D01*
X85357142Y-58335771D02*
X85309523Y-58383390D01*
X85309523Y-58383390D02*
X85214285Y-58431009D01*
X85214285Y-58431009D02*
X84880952Y-58431009D01*
X85738095Y-57954819D02*
X86309523Y-57954819D01*
X86023809Y-58954819D02*
X86023809Y-57954819D01*
X87166666Y-58954819D02*
X86595238Y-58954819D01*
X86880952Y-58954819D02*
X86880952Y-57954819D01*
X86880952Y-57954819D02*
X86785714Y-58097676D01*
X86785714Y-58097676D02*
X86690476Y-58192914D01*
X86690476Y-58192914D02*
X86595238Y-58240533D01*
%TO.C,U1*%
D12*
X76776100Y-69200000D02*
X59631100Y-69200000D01*
X78681100Y-67295000D02*
X78681100Y-53325000D01*
D13*
X57726100Y-64805000D02*
X56715828Y-64801272D01*
X56216100Y-64301272D02*
X56216100Y-56306000D01*
X56716100Y-55806000D02*
X57726100Y-55806000D01*
D12*
X57726100Y-53325000D02*
X57726100Y-67295000D01*
X76776100Y-51420000D02*
X59631100Y-51420000D01*
X59627100Y-69200000D02*
G75*
G02*
X57722100Y-67295000I1J1905001D01*
G01*
X78681100Y-67295000D02*
G75*
G02*
X76776100Y-69200000I-1905000J0D01*
G01*
D13*
X56715828Y-64801272D02*
G75*
G02*
X56216098Y-64301272I292J500022D01*
G01*
X56216100Y-56306000D02*
G75*
G02*
X56716100Y-55806000I500100J-100D01*
G01*
D12*
X57726100Y-53325000D02*
G75*
G02*
X59631100Y-51420000I1905050J-50D01*
G01*
X76776100Y-51420000D02*
G75*
G02*
X78681100Y-53325000I0J-1905000D01*
G01*
D14*
X58394100Y-69410000D02*
G75*
G02*
X57890100Y-69410000I-252000J0D01*
G01*
X57890100Y-69410000D02*
G75*
G02*
X58394100Y-69410000I252000J0D01*
G01*
X59111100Y-68136000D02*
G75*
G02*
X58607100Y-68136000I-252000J0D01*
G01*
X58607100Y-68136000D02*
G75*
G02*
X59111100Y-68136000I252000J0D01*
G01*
%TO.C,C5*%
D15*
X105087836Y-55610000D02*
X104872164Y-55610000D01*
X105087836Y-54890000D02*
X104872164Y-54890000D01*
%TO.C,U3*%
X79990000Y-61547500D02*
X79990000Y-59727500D01*
X80040000Y-61547500D02*
X79990000Y-61547500D01*
X83110000Y-61547500D02*
X83060000Y-61547500D01*
X79990000Y-59727500D02*
X80040000Y-59727500D01*
X81160000Y-59727500D02*
X81940000Y-59727500D01*
X83060000Y-59727500D02*
X83110000Y-59727500D01*
X83110000Y-59727500D02*
X83110000Y-61547500D01*
X80040000Y-62087500D02*
X79710000Y-62327500D01*
X79710000Y-61847500D01*
X80040000Y-62087500D01*
G36*
X80040000Y-62087500D02*
G01*
X79710000Y-62327500D01*
X79710000Y-61847500D01*
X80040000Y-62087500D01*
G37*
%TO.C,U2*%
D13*
X90795000Y-69250000D02*
X90795000Y-68965000D01*
X90795000Y-53250000D02*
X90795000Y-53535000D01*
X102995000Y-68965000D02*
X102995000Y-69250000D01*
X102995000Y-53250000D02*
X102995000Y-53535000D01*
X102995000Y-69250000D02*
X90795000Y-69250000D01*
X90795000Y-53250000D02*
X102995000Y-53250000D01*
D16*
X104245000Y-68250000D02*
G75*
G02*
X104045000Y-68250000I-100000J0D01*
G01*
X104045000Y-68250000D02*
G75*
G02*
X104245000Y-68250000I100000J0D01*
G01*
D13*
X102995000Y-59365000D02*
X102995000Y-60935000D01*
X90795000Y-60935000D02*
X90795000Y-59365000D01*
%TO.C,R2*%
D15*
X81735000Y-52685436D02*
X81735000Y-53139564D01*
X80265000Y-52685436D02*
X80265000Y-53139564D01*
%TO.C,R1*%
X80265000Y-67639564D02*
X80265000Y-67185436D01*
X81735000Y-67639564D02*
X81735000Y-67185436D01*
%TO.C,J1*%
X111000000Y-53750000D02*
X111000000Y-54550000D01*
X110800000Y-53750000D02*
X111000000Y-53750000D01*
X108000000Y-53750000D02*
X108200000Y-53750000D01*
X111000000Y-54550000D02*
X111500000Y-54550000D01*
X108000000Y-54550000D02*
X108000000Y-53750000D01*
X111000000Y-55950000D02*
X111500000Y-55950000D01*
X111000000Y-55950000D02*
X111000000Y-56550000D01*
X111000000Y-56550000D02*
X110800000Y-56750000D01*
X108200000Y-56750000D02*
X108000000Y-56750000D01*
X108000000Y-56750000D02*
X108000000Y-55950000D01*
%TO.C,C4*%
X86735000Y-67938748D02*
X86735000Y-68461252D01*
X85265000Y-67938748D02*
X85265000Y-68461252D01*
%TO.C,C3*%
X87765000Y-68461252D02*
X87765000Y-67938748D01*
X89235000Y-68461252D02*
X89235000Y-67938748D01*
%TO.C,C2*%
X80265000Y-56711252D02*
X80265000Y-56188748D01*
X81735000Y-56711252D02*
X81735000Y-56188748D01*
%TO.C,C1*%
X81238748Y-63265000D02*
X81761252Y-63265000D01*
X81238748Y-64735000D02*
X81761252Y-64735000D01*
%TO.C,BT1*%
X89060000Y-57410000D02*
X89060000Y-49590000D01*
X89060000Y-55810000D02*
X88140000Y-55810000D01*
X89060000Y-49590000D02*
X82940000Y-49590000D01*
X88140000Y-57410000D02*
X89060000Y-57410000D01*
X88140000Y-55810000D02*
X88140000Y-57410000D01*
X87860000Y-55810000D02*
X88140000Y-55810000D01*
X87860000Y-55810000D02*
X87860000Y-57025000D01*
X87800000Y-51850000D02*
X87800000Y-49590000D01*
X87300000Y-51850000D02*
X87300000Y-49590000D01*
X86500000Y-53950000D02*
X85500000Y-53950000D01*
X86500000Y-49590000D02*
X86500000Y-53950000D01*
X85500000Y-53950000D02*
X85500000Y-49590000D01*
X83860000Y-57410000D02*
X83860000Y-55810000D01*
X83860000Y-55810000D02*
X84140000Y-55810000D01*
X82940000Y-57410000D02*
X83860000Y-57410000D01*
X82940000Y-55810000D02*
X83860000Y-55810000D01*
X82940000Y-49590000D02*
X82940000Y-57410000D01*
X87300000Y-51850000D02*
X88300000Y-51850000D01*
X88300000Y-53450000D01*
X87300000Y-53450000D01*
X87300000Y-51850000D01*
X83700000Y-51850000D02*
X84700000Y-51850000D01*
X84700000Y-53450000D01*
X83700000Y-53450000D01*
X83700000Y-51850000D01*
%TD*%
M02*
