%TF.GenerationSoftware,KiCad,Pcbnew,10.0.0*%
%TF.CreationDate,2026-04-05T16:23:15+10:00*%
%TF.ProjectId,pcb,7063622e-6b69-4636-9164-5f7063625858,rev?*%
%TF.SameCoordinates,Original*%
%TF.FileFunction,Copper,L1,Top*%
%TF.FilePolarity,Positive*%
%FSLAX46Y46*%
G04 Gerber Fmt 4.6, Leading zero omitted, Abs format (unit mm)*
G04 Created by KiCad (PCBNEW 10.0.0) date 2026-04-05 16:23:15*
%MOMM*%
%LPD*%
G01*
G04 APERTURE LIST*
G04 Aperture macros list*
%AMRoundRect*
0 Rectangle with rounded corners*
0 $1 Rounding radius*
0 $2 $3 $4 $5 $6 $7 $8 $9 X,Y pos of 4 corners*
0 Add a 4 corners polygon primitive as box body*
4,1,4,$2,$3,$4,$5,$6,$7,$8,$9,$2,$3,0*
0 Add four circle primitives for the rounded corners*
1,1,$1+$1,$2,$3*
1,1,$1+$1,$4,$5*
1,1,$1+$1,$6,$7*
1,1,$1+$1,$8,$9*
0 Add four rect primitives between the rounded corners*
20,1,$1+$1,$2,$3,$4,$5,0*
20,1,$1+$1,$4,$5,$6,$7,0*
20,1,$1+$1,$6,$7,$8,$9,0*
20,1,$1+$1,$8,$9,$2,$3,0*%
G04 Aperture macros list end*
%TA.AperFunction,ComponentPad*%
%ADD10C,6.400000*%
%TD*%
%TA.AperFunction,SMDPad,CuDef*%
%ADD11RoundRect,0.500000X0.500000X-0.875000X0.500000X0.875000X-0.500000X0.875000X-0.500000X-0.875000X0*%
%TD*%
%TA.AperFunction,SMDPad,CuDef*%
%ADD12C,1.700000*%
%TD*%
%TA.AperFunction,SMDPad,CuDef*%
%ADD13RoundRect,0.275000X-0.275000X0.975000X-0.275000X-0.975000X0.275000X-0.975000X0.275000X0.975000X0*%
%TD*%
%TA.AperFunction,SMDPad,CuDef*%
%ADD14RoundRect,0.275000X-0.975000X-0.275000X0.975000X-0.275000X0.975000X0.275000X-0.975000X0.275000X0*%
%TD*%
%TA.AperFunction,SMDPad,CuDef*%
%ADD15RoundRect,0.147500X-0.172500X0.147500X-0.172500X-0.147500X0.172500X-0.147500X0.172500X0.147500X0*%
%TD*%
%TA.AperFunction,SMDPad,CuDef*%
%ADD16RoundRect,0.140000X0.140000X0.170000X-0.140000X0.170000X-0.140000X-0.170000X0.140000X-0.170000X0*%
%TD*%
%TA.AperFunction,SMDPad,CuDef*%
%ADD17RoundRect,0.150000X0.150000X-0.512500X0.150000X0.512500X-0.150000X0.512500X-0.150000X-0.512500X0*%
%TD*%
%TA.AperFunction,SMDPad,CuDef*%
%ADD18R,1.440000X0.800000*%
%TD*%
%TA.AperFunction,SMDPad,CuDef*%
%ADD19RoundRect,0.250000X-0.450000X0.262500X-0.450000X-0.262500X0.450000X-0.262500X0.450000X0.262500X0*%
%TD*%
%TA.AperFunction,SMDPad,CuDef*%
%ADD20RoundRect,0.250000X0.450000X-0.262500X0.450000X0.262500X-0.450000X0.262500X-0.450000X-0.262500X0*%
%TD*%
%TA.AperFunction,SMDPad,CuDef*%
%ADD21RoundRect,0.100000X0.400000X-0.400000X0.400000X0.400000X-0.400000X0.400000X-0.400000X-0.400000X0*%
%TD*%
%TA.AperFunction,SMDPad,CuDef*%
%ADD22RoundRect,0.105000X0.995000X-0.420000X0.995000X0.420000X-0.995000X0.420000X-0.995000X-0.420000X0*%
%TD*%
%TA.AperFunction,SMDPad,CuDef*%
%ADD23RoundRect,0.250000X-0.475000X0.250000X-0.475000X-0.250000X0.475000X-0.250000X0.475000X0.250000X0*%
%TD*%
%TA.AperFunction,SMDPad,CuDef*%
%ADD24RoundRect,0.250000X0.475000X-0.250000X0.475000X0.250000X-0.475000X0.250000X-0.475000X-0.250000X0*%
%TD*%
%TA.AperFunction,SMDPad,CuDef*%
%ADD25RoundRect,0.250000X-0.250000X-0.475000X0.250000X-0.475000X0.250000X0.475000X-0.250000X0.475000X0*%
%TD*%
%TA.AperFunction,ComponentPad*%
%ADD26RoundRect,0.250000X0.350000X0.625000X-0.350000X0.625000X-0.350000X-0.625000X0.350000X-0.625000X0*%
%TD*%
%TA.AperFunction,ComponentPad*%
%ADD27O,1.200000X1.750000*%
%TD*%
%TA.AperFunction,ViaPad*%
%ADD28C,0.600000*%
%TD*%
%TA.AperFunction,Conductor*%
%ADD29C,0.200000*%
%TD*%
G04 APERTURE END LIST*
D10*
%TO.P,REF\u002A\u002A,1*%
%TO.N,N/C*%
X108000000Y-66500000D03*
%TD*%
D11*
%TO.P,U1,1,P0.02_A0_D0_1*%
%TO.N,unconnected-(U1-P0.02_A0_D0-Pad1)*%
X60643100Y-68365000D03*
%TO.P,U1,2,P0.03_A1_D1_2*%
%TO.N,GND*%
X63183100Y-68365000D03*
%TO.P,U1,3,P0.28_A2_D2_3*%
%TO.N,unconnected-(U1-P0.28_A2_D2-Pad3)*%
X65723100Y-68365000D03*
%TO.P,U1,4,P0.29_A3_D3_4*%
%TO.N,unconnected-(U1-P0.29_A3_D3-Pad4)*%
X68263100Y-68365000D03*
%TO.P,U1,5,P0.04_A4_D4_SDA_5*%
%TO.N,unconnected-(U1-P0.04_A4_D4_SDA-Pad5)*%
X70803100Y-68365000D03*
%TO.P,U1,6,P0.05_A5_D5_SCL_6*%
%TO.N,unconnected-(U1-P0.05_A5_D5_SCL-Pad6)*%
X73343100Y-68365000D03*
%TO.P,U1,7,P1.11_D6_TX_7*%
%TO.N,/uart_tx*%
X75883100Y-68365000D03*
%TO.P,U1,8,P1.12_D7_RX_8*%
%TO.N,/uart_rx*%
X75883100Y-52200000D03*
%TO.P,U1,9,P1.13_D8_SCK_9*%
%TO.N,unconnected-(U1-P1.13_D8_SCK-Pad9)*%
X73343100Y-52200000D03*
%TO.P,U1,10,P1.14_D9_MISO_10*%
%TO.N,unconnected-(U1-P1.14_D9_MISO-Pad10)*%
X70803100Y-52200000D03*
%TO.P,U1,11,P1.15_D10_MOSI_11*%
%TO.N,unconnected-(U1-P1.15_D10_MOSI-Pad11)*%
X68263100Y-52200000D03*
%TO.P,U1,12,3V3_12*%
%TO.N,unconnected-(U1-3V3-Pad12)*%
X65723100Y-52200000D03*
%TO.P,U1,13,GND_13*%
%TO.N,GND*%
X63183100Y-52200000D03*
%TO.P,U1,14,VBUS_14*%
%TO.N,unconnected-(U1-VBUS-Pad14)*%
X60643100Y-52200000D03*
D12*
%TO.P,U1,15*%
%TO.N,N/C*%
X59694600Y-61580000D03*
%TO.P,U1,16*%
X59694600Y-59040000D03*
%TO.P,U1,17*%
X62234600Y-61580000D03*
%TO.P,U1,18*%
X62234600Y-59040000D03*
D13*
%TO.P,U1,32,BAT_32*%
%TO.N,Net-(BT1-+)*%
X67949600Y-64755000D03*
%TO.P,U1,33,GND_33*%
%TO.N,GND*%
X66044600Y-64755000D03*
D14*
%TO.P,U1,21*%
%TO.N,N/C*%
X77500000Y-56500000D03*
%TO.P,U1,22*%
X77500000Y-54595000D03*
%TD*%
D15*
%TO.P,L1,1,1_1*%
%TO.N,Net-(U2-VCC_RF)*%
X106500000Y-53265000D03*
%TO.P,L1,2,2_2*%
%TO.N,Net-(J1-In)*%
X106500000Y-54235000D03*
%TD*%
D16*
%TO.P,C5,1*%
%TO.N,Net-(J1-In)*%
X105460000Y-55250000D03*
%TO.P,C5,2*%
%TO.N,Net-(U2-RF_IN)*%
X104500000Y-55250000D03*
%TD*%
D17*
%TO.P,U3,1,VIN_1*%
%TO.N,Net-(BT1-+)*%
X80600000Y-61775000D03*
%TO.P,U3,2,GND_2*%
%TO.N,GND*%
X81550000Y-61775000D03*
%TO.P,U3,3,EN_3*%
%TO.N,Net-(BT1-+)*%
X82500000Y-61775000D03*
%TO.P,U3,4,NC_4*%
%TO.N,unconnected-(U3-NC-Pad4)*%
X82500000Y-59500000D03*
%TO.P,U3,5,VOUT_5*%
%TO.N,Net-(U2-VCC)*%
X80600000Y-59500000D03*
%TD*%
D18*
%TO.P,U2,1,~{SAFEBOOT}_1*%
%TO.N,unconnected-(U2-~{SAFEBOOT}-Pad1)*%
X102790000Y-68250000D03*
%TO.P,U2,2,D_SEL_2*%
%TO.N,unconnected-(U2-D_SEL-Pad2)*%
X102790000Y-67150000D03*
%TO.P,U2,3,TIMEPULSE_3*%
%TO.N,unconnected-(U2-TIMEPULSE-Pad3)*%
X102790000Y-66050000D03*
%TO.P,U2,4,WHEELTICK_4*%
%TO.N,unconnected-(U2-WHEELTICK-Pad4)*%
X102790000Y-64950000D03*
%TO.P,U2,5,USB_DM_5*%
%TO.N,unconnected-(U2-USB_DM-Pad5)*%
X102790000Y-63850000D03*
%TO.P,U2,6,USB_DP_6*%
%TO.N,unconnected-(U2-USB_DP-Pad6)*%
X102790000Y-62750000D03*
%TO.P,U2,7,V_USB_7*%
%TO.N,unconnected-(U2-V_USB-Pad7)*%
X102790000Y-61650000D03*
%TO.P,U2,8,~{RESET}_8*%
%TO.N,unconnected-(U2-~{RESET}-Pad8)*%
X102790000Y-58650000D03*
%TO.P,U2,9,VCC_RF_9*%
%TO.N,Net-(U2-VCC_RF)*%
X102790000Y-57550000D03*
%TO.P,U2,10,GND_10*%
%TO.N,GND*%
X102790000Y-56450000D03*
%TO.P,U2,11,RF_IN_11*%
%TO.N,Net-(U2-RF_IN)*%
X102790000Y-55350000D03*
%TO.P,U2,12,GND_12*%
%TO.N,GND*%
X102790000Y-54250000D03*
%TO.P,U2,13,GND_13*%
X91000000Y-54250000D03*
%TO.P,U2,14,LNA_EN_14*%
%TO.N,unconnected-(U2-LNA_EN-Pad14)*%
X91000000Y-55350000D03*
%TO.P,U2,15,DIR_15*%
%TO.N,unconnected-(U2-DIR-Pad15)*%
X91000000Y-56450000D03*
%TO.P,U2,16,RESERVED_16*%
%TO.N,unconnected-(U2-RESERVED-Pad16)*%
X91000000Y-57550000D03*
%TO.P,U2,17,WOM_17*%
%TO.N,unconnected-(U2-WOM-Pad17)*%
X91000000Y-58650000D03*
%TO.P,U2,18,SDA/~{SPI_CS}_18*%
%TO.N,unconnected-(U2-SDA{slash}~{SPI_CS}-Pad18)*%
X91000000Y-61650000D03*
%TO.P,U2,19,SCL/SPI_SLK_19*%
%TO.N,unconnected-(U2-SCL{slash}SPI_SLK-Pad19)*%
X91000000Y-62750000D03*
%TO.P,U2,20,TXD/SPI_MISO_20*%
%TO.N,/uart_tx*%
X91000000Y-63850000D03*
%TO.P,U2,21,RXD/SPI_MOSI_21*%
%TO.N,/uart_rx*%
X91000000Y-64950000D03*
%TO.P,U2,22,V_BCKP_22*%
%TO.N,Net-(U2-VCC)*%
X91000000Y-66050000D03*
%TO.P,U2,23,VCC_23*%
X91000000Y-67150000D03*
%TO.P,U2,24,GND_24*%
%TO.N,GND*%
X91000000Y-68250000D03*
%TD*%
D19*
%TO.P,R2,1*%
%TO.N,/uart_rx*%
X81000000Y-52000000D03*
%TO.P,R2,2*%
%TO.N,Net-(U2-VCC)*%
X81000000Y-53825000D03*
%TD*%
D20*
%TO.P,R1,1*%
%TO.N,/uart_tx*%
X81000000Y-68325000D03*
%TO.P,R1,2*%
%TO.N,Net-(U2-VCC)*%
X81000000Y-66500000D03*
%TD*%
D21*
%TO.P,J1,1,In_1*%
%TO.N,Net-(J1-In)*%
X108000000Y-55250000D03*
D22*
%TO.P,J1,2,Ext_2*%
%TO.N,GND*%
X109500000Y-53775000D03*
D21*
X111000000Y-55250000D03*
D22*
X109500000Y-56725000D03*
%TD*%
D23*
%TO.P,C4,1*%
%TO.N,Net-(U2-VCC)*%
X86000000Y-67250000D03*
%TO.P,C4,2*%
%TO.N,GND*%
X86000000Y-69150000D03*
%TD*%
D24*
%TO.P,C3,1*%
%TO.N,GND*%
X88500000Y-69150000D03*
%TO.P,C3,2*%
%TO.N,Net-(U2-VCC)*%
X88500000Y-67250000D03*
%TD*%
%TO.P,C2,1*%
%TO.N,Net-(U2-VCC)*%
X81000000Y-57400000D03*
%TO.P,C2,2*%
%TO.N,GND*%
X81000000Y-55500000D03*
%TD*%
D25*
%TO.P,C1,1*%
%TO.N,Net-(BT1-+)*%
X80550000Y-64000000D03*
%TO.P,C1,2*%
%TO.N,GND*%
X82450000Y-64000000D03*
%TD*%
D26*
%TO.P,BT1,1,+_1*%
%TO.N,Net-(BT1-+)*%
X87000000Y-55950000D03*
D27*
%TO.P,BT1,2,-_2*%
%TO.N,GND*%
X85000000Y-55950000D03*
%TD*%
D28*
%TO.N,GND*%
X81550000Y-61775000D03*
%TO.N,Net-(U2-VCC)*%
X86000000Y-67250000D03*
X81000000Y-66500000D03*
%TO.N,Net-(BT1-+)*%
X80550000Y-64000000D03*
%TO.N,GND*%
X63183100Y-68365000D03*
%TO.N,Net-(BT1-+)*%
X67949600Y-64755000D03*
%TO.N,GND*%
X66044600Y-64755000D03*
%TO.N,Net-(U2-VCC)*%
X86000000Y-67250000D03*
%TO.N,GND*%
X81000000Y-55500000D03*
X63183100Y-52200000D03*
X103000000Y-56250000D03*
X109500000Y-53750000D03*
X111000000Y-55250000D03*
X109500000Y-56750000D03*
X102500000Y-54250000D03*
X91000000Y-54250000D03*
X91000000Y-68250000D03*
X88500000Y-69250000D03*
X86000000Y-69250000D03*
X82500000Y-64000000D03*
%TD*%
%TO.N,Net-(U2-VCC_RF)*%
D29*
X97500000Y-57550000D02*
X102790000Y-57550000D01*
%TO.N,/uart_rx*%
X82425000Y-55675000D02*
X82425000Y-53425000D01*
X87700000Y-60950000D02*
X82425000Y-55675000D01*
X82425000Y-53425000D02*
X81000000Y-52000000D01*
%TO.N,/uart_tx*%
X87650000Y-63850000D02*
X83175000Y-68325000D01*
X91000000Y-63850000D02*
X87650000Y-63850000D01*
X83175000Y-68325000D02*
X81000000Y-68325000D01*
%TO.N,Net-(U2-VCC)*%
X82025000Y-56375000D02*
X81000000Y-57400000D01*
X82025000Y-54850000D02*
X82025000Y-56375000D01*
X81000000Y-53825000D02*
X82025000Y-54850000D01*
%TO.N,Net-(BT1-+)*%
X80550000Y-61825000D02*
X80600000Y-61775000D01*
X80550000Y-64000000D02*
X80550000Y-61825000D01*
X82500000Y-62128052D02*
X82500000Y-61775000D01*
X81890552Y-62737500D02*
X82500000Y-62128052D01*
X80900001Y-62737500D02*
X81890552Y-62737500D01*
X80600000Y-62437499D02*
X80900001Y-62737500D01*
X80600000Y-61775000D02*
X80600000Y-62437499D01*
%TO.N,Net-(U2-VCC)*%
X80600000Y-57800000D02*
X81000000Y-57400000D01*
X80600000Y-59500000D02*
X80600000Y-57800000D01*
%TO.N,/uart_rx*%
X92020000Y-60950000D02*
X92020000Y-64550000D01*
X87700000Y-60950000D02*
X92020000Y-60950000D01*
X91620000Y-64950000D02*
X91000000Y-64950000D01*
X92020000Y-64550000D02*
X91620000Y-64950000D01*
X80800000Y-52200000D02*
X81000000Y-52000000D01*
X75883100Y-52200000D02*
X80800000Y-52200000D01*
%TO.N,/uart_tx*%
X75923100Y-68325000D02*
X75883100Y-68365000D01*
X81000000Y-68325000D02*
X75923100Y-68325000D01*
%TO.N,Net-(U2-VCC)*%
X79500000Y-66500000D02*
X81000000Y-66500000D01*
X79500000Y-58950000D02*
X79500000Y-66500000D01*
X81000000Y-57450000D02*
X79500000Y-58950000D01*
X86200000Y-66050000D02*
X86000000Y-66250000D01*
X90800000Y-66050000D02*
X86200000Y-66050000D01*
X91000000Y-66250000D02*
X90800000Y-66050000D01*
X86000000Y-66250000D02*
X86000000Y-67250000D01*
X91000000Y-66050000D02*
X91000000Y-66250000D01*
X86000000Y-67250000D02*
X86000000Y-67200000D01*
%TO.N,/uart_rx*%
X91000000Y-64950000D02*
X90700000Y-64950000D01*
%TO.N,Net-(U2-VCC)*%
X88500000Y-67250000D02*
X86000000Y-67250000D01*
X91000000Y-67250000D02*
X88500000Y-67250000D01*
X91000000Y-67150000D02*
X91000000Y-67250000D01*
X86050000Y-67150000D02*
X86000000Y-67200000D01*
%TO.N,Net-(J1-In)*%
X106500000Y-55250000D02*
X106500000Y-54235000D01*
X106500000Y-55250000D02*
X105460000Y-55250000D01*
%TO.N,Net-(U2-RF_IN)*%
X102890000Y-55250000D02*
X102790000Y-55350000D01*
X104500000Y-55250000D02*
X102890000Y-55250000D01*
%TO.N,Net-(J1-In)*%
X108000000Y-55250000D02*
X106500000Y-55250000D01*
%TO.N,Net-(U2-VCC_RF)*%
X106500000Y-53265000D02*
X106500000Y-51000000D01*
X97500000Y-51500000D02*
X97500000Y-57550000D01*
X106500000Y-51000000D02*
X98000000Y-51000000D01*
X98000000Y-51000000D02*
X97500000Y-51500000D01*
%TD*%
M02*
