%TF.GenerationSoftware,KiCad,Pcbnew,10.0.0*%
%TF.CreationDate,2026-04-05T16:23:16+10:00*%
%TF.ProjectId,pcb,7063622e-6b69-4636-9164-5f7063625858,rev?*%
%TF.SameCoordinates,Original*%
%TF.FileFunction,Soldermask,Top*%
%TF.FilePolarity,Negative*%
%FSLAX46Y46*%
G04 Gerber Fmt 4.6, Leading zero omitted, Abs format (unit mm)*
G04 Created by KiCad (PCBNEW 10.0.0) date 2026-04-05 16:23:16*
%MOMM*%
%LPD*%
G01*
G04 APERTURE LIST*
G04 Aperture macros list*
%AMRoundRect*
0 Rectangle with rounded corners*
0 $1 Rounding radius*
0 $2 $3 $4 $5 $6 $7 $8 $9 X,Y pos of 4 corners*
0 Add a 4 corners polygon primitive as box body*
4,1,4,$2,$3,$4,$5,$6,$7,$8,$9,$2,$3,0*
0 Add four circle primitives for the rounded corners*
1,1,$1+$1,$2,$3*
1,1,$1+$1,$4,$5*
1,1,$1+$1,$6,$7*
1,1,$1+$1,$8,$9*
0 Add four rect primitives between the rounded corners*
20,1,$1+$1,$2,$3,$4,$5,0*
20,1,$1+$1,$4,$5,$6,$7,0*
20,1,$1+$1,$6,$7,$8,$9,0*
20,1,$1+$1,$8,$9,$2,$3,0*%
G04 Aperture macros list end*
%ADD10C,6.400000*%
%ADD11RoundRect,0.525400X0.525400X-0.900400X0.525400X0.900400X-0.525400X0.900400X-0.525400X-0.900400X0*%
%ADD12C,1.700000*%
%ADD13RoundRect,0.275000X-0.275000X0.975000X-0.275000X-0.975000X0.275000X-0.975000X0.275000X0.975000X0*%
%ADD14RoundRect,0.275000X-0.975000X-0.275000X0.975000X-0.275000X0.975000X0.275000X-0.975000X0.275000X0*%
%ADD15RoundRect,0.147500X-0.172500X0.147500X-0.172500X-0.147500X0.172500X-0.147500X0.172500X0.147500X0*%
%ADD16RoundRect,0.140000X0.140000X0.170000X-0.140000X0.170000X-0.140000X-0.170000X0.140000X-0.170000X0*%
%ADD17RoundRect,0.150000X0.150000X-0.512500X0.150000X0.512500X-0.150000X0.512500X-0.150000X-0.512500X0*%
%ADD18RoundRect,0.102000X0.720000X0.400000X-0.720000X0.400000X-0.720000X-0.400000X0.720000X-0.400000X0*%
%ADD19RoundRect,0.250000X-0.450000X0.262500X-0.450000X-0.262500X0.450000X-0.262500X0.450000X0.262500X0*%
%ADD20RoundRect,0.250000X0.450000X-0.262500X0.450000X0.262500X-0.450000X0.262500X-0.450000X-0.262500X0*%
%ADD21RoundRect,0.100000X0.400000X-0.400000X0.400000X0.400000X-0.400000X0.400000X-0.400000X-0.400000X0*%
%ADD22RoundRect,0.105000X0.995000X-0.420000X0.995000X0.420000X-0.995000X0.420000X-0.995000X-0.420000X0*%
%ADD23RoundRect,0.250000X-0.475000X0.250000X-0.475000X-0.250000X0.475000X-0.250000X0.475000X0.250000X0*%
%ADD24RoundRect,0.250000X0.475000X-0.250000X0.475000X0.250000X-0.475000X0.250000X-0.475000X-0.250000X0*%
%ADD25RoundRect,0.250000X-0.250000X-0.475000X0.250000X-0.475000X0.250000X0.475000X-0.250000X0.475000X0*%
%ADD26RoundRect,0.250000X0.350000X0.625000X-0.350000X0.625000X-0.350000X-0.625000X0.350000X-0.625000X0*%
%ADD27O,1.200000X1.750000*%
G04 APERTURE END LIST*
D10*
%TO.C,REF\u002A\u002A*%
X108000000Y-66500000D03*
%TD*%
D11*
%TO.C,U1*%
X60643100Y-68365000D03*
X63183100Y-68365000D03*
X65723100Y-68365000D03*
X68263100Y-68365000D03*
X70803100Y-68365000D03*
X73343100Y-68365000D03*
X75883100Y-68365000D03*
X75883100Y-52200000D03*
X73343100Y-52200000D03*
X70803100Y-52200000D03*
X68263100Y-52200000D03*
X65723100Y-52200000D03*
X63183100Y-52200000D03*
X60643100Y-52200000D03*
D12*
X59694600Y-61580000D03*
X59694600Y-59040000D03*
X62234600Y-61580000D03*
X62234600Y-59040000D03*
D13*
X67949600Y-64755000D03*
X66044600Y-64755000D03*
D14*
X77500000Y-56500000D03*
X77500000Y-54595000D03*
%TD*%
D15*
%TO.C,L1*%
X106500000Y-53265000D03*
X106500000Y-54235000D03*
%TD*%
D16*
%TO.C,C5*%
X105460000Y-55250000D03*
X104500000Y-55250000D03*
%TD*%
D17*
%TO.C,U3*%
X80600000Y-61775000D03*
X81550000Y-61775000D03*
X82500000Y-61775000D03*
X82500000Y-59500000D03*
X80600000Y-59500000D03*
%TD*%
D18*
%TO.C,U2*%
X102790000Y-68250000D03*
X102790000Y-67150000D03*
X102790000Y-66050000D03*
X102790000Y-64950000D03*
X102790000Y-63850000D03*
X102790000Y-62750000D03*
X102790000Y-61650000D03*
X102790000Y-58650000D03*
X102790000Y-57550000D03*
X102790000Y-56450000D03*
X102790000Y-55350000D03*
X102790000Y-54250000D03*
X91000000Y-54250000D03*
X91000000Y-55350000D03*
X91000000Y-56450000D03*
X91000000Y-57550000D03*
X91000000Y-58650000D03*
X91000000Y-61650000D03*
X91000000Y-62750000D03*
X91000000Y-63850000D03*
X91000000Y-64950000D03*
X91000000Y-66050000D03*
X91000000Y-67150000D03*
X91000000Y-68250000D03*
%TD*%
D19*
%TO.C,R2*%
X81000000Y-52000000D03*
X81000000Y-53825000D03*
%TD*%
D20*
%TO.C,R1*%
X81000000Y-68325000D03*
X81000000Y-66500000D03*
%TD*%
D21*
%TO.C,J1*%
X108000000Y-55250000D03*
D22*
X109500000Y-53775000D03*
D21*
X111000000Y-55250000D03*
D22*
X109500000Y-56725000D03*
%TD*%
D23*
%TO.C,C4*%
X86000000Y-67250000D03*
X86000000Y-69150000D03*
%TD*%
D24*
%TO.C,C3*%
X88500000Y-69150000D03*
X88500000Y-67250000D03*
%TD*%
%TO.C,C2*%
X81000000Y-57400000D03*
X81000000Y-55500000D03*
%TD*%
D25*
%TO.C,C1*%
X80550000Y-64000000D03*
X82450000Y-64000000D03*
%TD*%
D26*
%TO.C,BT1*%
X87000000Y-55950000D03*
D27*
X85000000Y-55950000D03*
%TD*%
M02*
